**ABCDEFGHIJKLMNOPQRSTUVWXYZabcdefghijklmnopqrstuvwxyz**************************
**PARASOLID !"#$%&'()*+,-./:;<=>?@[\]^_`{|}~0123456789**************************
**PART1;
MC=AMD64;
MC_MODEL=Intel64 Family 6 Model 158 Stepping 13, GenuineIntel;
MC_ID=unknown;
OS=Windows_NT;
OS_RELEASE=unknown;
FRU=Parasolid Version 32.1, build 255,  1- 1-2021;
APPL=SOLIDWORKS 2021-2021301;
SITE=;
USER=unknown;
FORMAT=text;
GUISE=transmit;
KEY=cone;
FILE=cone.x_t;
DATE=Thu Jun  2 19:05:42 2022;
**PART2;
SCH=SCH_3201255_32001;
USFLD_SIZE=0;
**PART3;
**END_OF_HEADER*****************************************************************
T51 : TRANSMIT FILE created by modeller version 320125523 SCH_3201255_32001_1300
6229 0 12 34 CCCCCCI4 mesh1006 0 I8 polyline1008 0 CCCCCCCDI5 owner1040 0 CCCCCC
I13 boundary_mesh1006 0 I17 boundary_polyline1008 0 CCCA16 index_map_offset0 0 1
 dA9 index_map82 0 A17 node_id_index_map82 0 A20 schema_embedding_map82 0 A5 chi
ld12 0 A14 lowest_node_id0 0 1 dA16 mesh_offset_data206 0 Z1 136 2 3 0 0 0 0 0 0
 1e3 1e-8 0 4 0 1 0 1 1 5 6 7 8 0 0 9 10 11 0 0 0 0 0 0 0 81 255 2 2 133 12 1 13
 0 0 0 0 14 70 11 CI9 list_type0 0 1 uI10 notransmit0 0 1 lCCCDCCDI12 finger_ind
ex0 0 1 dI12 finger_block1012 0 CZ3 0 4 T1 0 0 9 20 1 15 15 13 255 5 27 0 1 0 16
 0 0 17 0 68 255 6 50 0 16 18 0 0 +19 .0969869119076918 0 .0003770793310541165 1
 0 -1223091975671892e-31 ?-.0116024409547794 0 .0003770793310605925 ?.9162667954
40852 0 0 -1 0 31 255 7 51 0 10 19 0 0 +.0958975590451783 0 .0003770793310541165
 1 0 -1223091975671892e-31 -1223091975671892e-31 0 -1 .0259988750000265 29 255 8
 19 0 11 20 0 -.01160244095476476 0 .0003770793310541295 19 8 CCCCCCCA5 owner12
 0 Z9 31 0 1 17 0 21 V0 16 255 10 33 0 ?22 0 23 7 0 0 1 18 255 11 17 0 24 0 25 8
 ?1 17 255 24 0 26 24 24 11 0 0 0 0 ?18 25 80 0 27 11 0 20 ?1 17 27 0 28 27 27 2
5 0 0 0 0 ?29 20 98 0 25 0 8 -.00910949161701322 0 .0003770793310541295 15 255 2
8 85 0 27 29 30 14 255 29 82 31 ?0 32 28 5 33 -0 0 0 32 21 15 30 86 0 34 29 0 17
 34 0 30 34 34 0 35 23 0 0 +17 35 0 36 35 35 0 34 23 0 0 -16 23 79 0 ?34 10 0 37
 0 0 1 31 37 97 0 23 0 38 0 +.0959394223134553 0 .0003770793310541165 1 0 -12230
91975671892e-31 -1223091975671892e-31 0 -1 .0249997516509003 134 255 38 96 0 1 3
7 19 39 +40 41 134 19 7 0 1 38 7 42 +43 44 141 255 39 45 39 39 38 136 255 40 2 3
 3 2 5 FFF1 46 47 48 135 255 41 2 0 45 255 9 46 .0958975590451523 0 -.0256217956
689713 .0431949697862786 0 -.02341355717899425 -.00950761947259504 0 -.000540250
604470606 127 255 4 47 3 3 0 0 128 255 4 48 .0789347498620791 .899949947470612 ?
?68 45 93 0 1 33 18 49 +38 .0969869119076918 0 .0003770793310541165 1 0 -1223091
975671892e-31 ????-3782114610670595e-30 0 -1 ?60 255 33 94 0 29 0 45 0 +VF45 -.0
01 1517883041479705e-33 52 255 18 49 0 32 45 6 0 +.0969869119076918 0 .000377079
3310541165 -1 0 1223091975671892e-31 0 .999123349124037 .0418632683287747 122309
1975671892e-31 0 1 141 49 33 49 49 45 14 32 38 50 ?29 16 36 5 18 +0 0 29 16 21 8
1 1 50 135 51 32 52 0 31 53 54 14 16 46 53 ?32 0 26 5 6 +0 0 32 0 21 15 36 75 0
 35 32 55 13 21 30 0 0 0 0 0 0 9 16 15 55 60 0 22 32 0 17 22 0 55 22 22 0 56 10
 0 0 +17 56 0 57 56 56 0 22 10 0 0 -15 57 45 0 56 16 0 81 1 53 136 51 16 58 0 50
 0 59 15 26 61 0 24 16 57 80 255 1 51 60 61 9000 1 1 1 1 1 1 1 1 0 FFFFTFTFFFFFF
F1 81 1 58 123 62 16 0 53 0 52 63 82 255 1 59 1692139873 80 1 62 0 64 8001 0 0 0
 0 3 5 0 0 0 FFFFTFTFFFFFFF2 81 1 52 124 62 32 0 50 58 65 66 83 255 3 63 1 1 1 8
1 1 65 125 62 29 0 31 52 0 67 83 3 66 1 1 1 81 1 31 134 51 29 65 0 0 50 68 83 3
 67 1 1 1 82 1 68 1696203106 79 255 15 64 SDL/TYSA_COLOUR79 14 61 SWEntUnchanged
82 1 54 1691222370 141 42 6 42 42 19 136 43 2 3 3 2 5 FFF1 69 70 71 135 44 2 0 4
5 9 69 .0958975590451523 0 -.0256217956689713 .04214755904518645 0 -.02336967066
894185 -.0116024409547794 0 .0003770793310605925 127 2 70 3 3 128 2 71 .07893474
98620791 .916266795440852 19 17 26 0 1 0 9 5 S0 74 4 CI16 index_map_offset0 0 1
 dCCZ20 15 9 0 0 72 73 53 74 75 76 13 65 2 0 0 0 0 0 0 0 0 0 0 0 81 2 72 64 77 1
 0 73 0 0 0 78 81 2 73 68 79 1 72 74 0 0 0 80 81 1 74 103 81 1 73 75 0 0 82 81 2
 75 109 83 1 74 76 0 0 84 0 81 2 76 113 85 1 75 13 0 0 0 86 81 2 13 116 87 1 76
 2 0 0 0 0 80 2 87 88 89 9000 0 0 0 0 3 5 0 0 0 FFTFFFFFFFFFFF9 1 79 16 89 BODY_
RECIPE_200180 2 85 90 91 9000 0 0 0 0 3 5 0 0 0 FFTFFFFFFFFFFF9 1 82 1 86 1 79 2
4 91 BODY_IN_LIGHTWEIGHT_PERM80 2 83 92 93 8004 0 0 0 0 3 5 0 0 0 FFTFFFFFFFFFFF
2 3 83 1 84 1 79 16 93 SDL/TYSA_DENSITY80 1 81 94 95 9000 1 1 1 1 1 1 1 1 0 FFTF
FFFFFFFFFF1 82 1 82 746659 79 10 95 BODY_MATCH80 2 79 96 97 9000 0 0 0 0 3 5 0 0
 0 FFTFFFFFFFFFFF9 1 82 1 80 72 79 30 97 LAST_BODY_MODIFYING_FEATURE_ID80 2 77 9
8 99 9000 0 0 0 0 3 5 0 0 0 FFTFFFFFFFFFFF9 1 82 1 78 308 79 19 99 ENT_TIME_STAM
P_200180 2 12 100 101 9000 0 0 0 0 3 5 0 0 0 FFTFFFFFFFFFFF9 1 82 1 14 106 79 12
 101 ATOM_ID_20011 0 
