**ABCDEFGHIJKLMNOPQRSTUVWXYZabcdefghijklmnopqrstuvwxyz**************************
**PARASOLID !"#$%&'()*+,-./:;<=>?@[\]^_`{|}~0123456789**************************
**PART1;
MC=AMD64;
MC_MODEL=Intel64 Family 6 Model 158 Stepping 13, GenuineIntel;
MC_ID=unknown;
OS=Windows_NT;
OS_RELEASE=unknown;
FRU=Parasolid Version 32.1, build 255,  1- 1-2021;
APPL=SOLIDWORKS 2021-2021301;
SITE=;
USER=unknown;
FORMAT=text;
GUISE=transmit;
KEY=stable;
FILE=stable.x_t;
DATE=Thu Jun  2 19:06:21 2022;
**PART2;
SCH=SCH_3201255_32001;
USFLD_SIZE=0;
**PART3;
**END_OF_HEADER*****************************************************************
T51 : TRANSMIT FILE created by modeller version 320125523 SCH_3201255_32001_1300
6229 0 12 34 CCCCCCI4 mesh1006 0 I8 polyline1008 0 CCCCCCCDI5 owner1040 0 CCCCCC
I13 boundary_mesh1006 0 I17 boundary_polyline1008 0 CCCA16 index_map_offset0 0 1
 dA9 index_map82 0 A17 node_id_index_map82 0 A20 schema_embedding_map82 0 A5 chi
ld12 0 A14 lowest_node_id0 0 1 dA16 mesh_offset_data206 0 Z1 294 2 3 0 0 0 0 0 0
 1e3 1e-8 0 4 0 1 0 1 1 5 6 7 8 0 0 9 10 11 0 0 0 0 0 0 0 81 255 2 2 287 12 1 13
 0 0 0 0 14 70 11 CI9 list_type0 0 1 uI10 notransmit0 0 1 lCCCDCCDI12 finger_ind
ex0 0 1 dI12 finger_block1012 0 CZ3 0 4 T1 0 0 9 20 1 15 15 13 255 5 99 0 1 0 16
 0 0 17 0 51 255 6 187 0 18 19 0 0 +.03191285058769415 .001 -.04227257867532385
 0 -1 0 .01 0 0 -1 31 255 7 166 0 10 20 0 0 +.03191285058769415 .001 -.042272578
67532385 0 1 0 0 0 1 .01 29 255 8 158 0 11 21 0 .0278774806572374 .001 -.0514222
119753182 19 8 CCCCCCCA5 owner12 0 Z9 33 0 1 17 0 22 V0 16 255 10 164 0 ?23 0 24
 7 0 0 1 18 255 11 156 0 25 0 26 8 ?1 17 255 25 0 27 28 29 11 30 24 0 31 +18 26
 148 0 32 11 33 21 ?1 17 32 0 34 35 36 26 37 38 0 29 +18 33 140 0 23 26 39 40 ?1
 29 21 150 0 26 40 8 .0278774806572374 0 -.0514222119753182 29 40 142 0 33 41 21
 .02293776284484555 .001 -.0466825446625134 29 41 139 0 39 42 40 .02293776284484
555 0 -.0466825446625134 18 39 137 0 37 33 43 41 ?1 29 42 76 0 44 45 41 .07 0 -.
07 18 44 67 0 46 47 48 42 ?1 29 45 77 0 48 49 42 .07 0 0 18 48 68 0 50 44 51 45
 ?1 29 49 78 0 51 52 45 0 0 0 18 51 69 0 53 48 0 49 ?1 29 52 29 0 43 54 49 .07 .
001 -.07 18 43 27 0 55 39 56 52 ?1 29 54 26 0 56 57 52 .07 .001 0 18 56 24 0 58
 43 47 54 ?1 29 57 23 0 47 0 54 0 .001 0 18 47 21 0 59 56 44 57 ?1 17 59 0 60 58
 23 47 61 62 0 63 +15 255 60 4 0 31 64 0 17 58 0 60 55 59 56 63 65 0 66 +17 23 0
 60 59 31 33 67 10 0 61 +17 61 0 68 69 70 33 59 62 0 71 -16 62 141 0 ?59 65 72 7
3 0 0 1 17 63 0 74 75 66 47 58 65 0 70 -15 74 87 0 50 76 0 17 75 0 74 50 63 51 7
0 77 0 0 +17 66 0 74 63 50 56 78 79 0 80 -16 65 9 0 ?58 81 62 82 0 0 1 17 70 0 6
8 61 53 47 75 77 0 0 -15 68 89 0 61 16 0 17 53 0 68 70 69 51 36 83 0 84 +16 77 8
2 0 ?75 85 79 86 0 0 1 16 85 143 0 ?69 38 77 87 0 0 1 16 79 81 0 ?78 77 88 89 0
 0 1 30 255 86 98 0 77 89 87 0 +0 .001 0 0 -1 0 30 89 97 0 79 90 86 0 +.07 .001
 0 0 -1 0 30 87 145 0 85 86 91 0 +.02293776284484555 .001 -.0466825446625134 0 -
1 0 31 91 153 0 38 87 20 0 -.03191285058769415 0 -.04227257867532385 0 1 0 0 0 1
 .01 16 38 151 0 ?32 24 85 91 0 0 1 30 20 161 0 24 91 7 0 -.0278774806572374 .00
1 -.0514222119753182 0 -1 0 16 24 159 0 ?25 10 38 20 0 0 1 30 90 96 0 88 92 89 0
 +.07 .001 -.07 0 -1 0 16 88 80 0 ?93 79 94 90 0 0 1 30 92 71 0 72 95 90 0 +.07
 0 -.07 -.914963329999436 0 .4035369930456725 16 72 50 0 ?29 62 96 92 0 0 1 30 9
5 72 0 96 97 92 0 +.07 0 0 -3766828119263925e-30 0 -1 16 96 54 0 ?46 72 98 95 0
 0 1 30 97 73 0 98 99 95 0 +0 0 0 1 0 0 16 98 58 0 ?50 96 83 97 0 0 1 30 99 74 0
 83 100 97 0 +.0245442990763072 0 -.0499521398660408 -.440996598718955 0 .897508
774284861 16 83 138 0 ?53 98 0 99 0 0 1 30 100 19 0 94 101 99 0 +.07 .001 -.07 -
.914963329999436 0 .4035369930456725 16 94 17 0 ?31 88 81 100 0 0 1 30 101 15 0
 81 82 100 0 +.07 .001 0 -3766828119263925e-30 0 -1 16 81 13 0 ?55 94 65 101 0 0
 1 30 82 11 0 65 73 101 0 +0 .001 0 1 0 0 30 73 7 0 62 0 82 0 +.0245442990763072
 .001 -.0499521398660408 -.440996598718955 0 .897508774284861 17 55 0 60 31 58 4
3 80 81 0 102 +17 31 0 60 23 55 11 28 94 0 67 +17 80 0 103 78 102 56 55 81 0 0 -
17 102 0 103 80 46 43 93 88 0 28 -15 103 85 0 46 104 0 17 46 0 103 102 78 44 105
 96 0 93 +17 93 0 27 29 28 44 102 88 0 35 +17 28 0 27 93 25 43 31 94 0 0 -15 27
 83 0 29 106 0 17 29 0 27 25 93 26 35 72 0 30 +14 255 106 84 107 ?64 104 27 5 10
8 -0 0 64 104 22 81 1 107 288 109 106 110 0 0 111 112 14 64 1 111 ?113 106 60 5
 114 +0 0 113 106 22 14 104 86 115 ?106 76 103 5 116 -0 0 106 76 22 50 255 108 9
1 0 106 117 116 0 +.07 .001 -.07 .4035369930456725 0 .914963329999436 .914963329
999436 0 -.4035369930456725 13 22 34 0 0 0 0 0 0 9 16 14 16 90 118 ?76 0 68 5 19
 -0 0 76 0 22 81 1 118 291 109 16 119 0 115 120 121 14 76 88 120 ?104 16 74 5 12
2 -0 0 104 16 22 50 19 94 0 16 122 6 0 +.0245442990763072 .001 -.049952139866040
8 .897508774284861 0 .440996598718955 .440996598718955 0 -.897508774284861 50 12
2 93 0 76 116 19 0 +0 .001 0 0 0 -1 -1 0 0 50 116 92 0 104 108 122 0 +.07 .001 0
 -1 0 3766828119263925e-30 3766828119263925e-30 0 1 81 1 120 292 109 76 123 0 11
8 124 125 80 255 1 109 126 127 9000 1 1 1 1 1 1 1 1 0 FFFFTFTFFFFFFF1 81 1 123 2
66 128 76 0 120 119 129 130 81 1 124 293 109 113 131 0 120 132 133 82 255 1 125
 -58195853 14 113 48 124 ?18 64 34 5 117 -0 0 18 64 22 81 1 131 270 128 113 0 12
4 134 135 136 81 1 132 294 109 18 135 0 124 0 137 82 1 133 -59637644 14 18 175 1
32 ?0 113 138 5 6 +0 0 0 113 22 81 1 135 271 128 18 0 132 131 0 139 82 1 137 -51
838860 80 1 128 0 140 8001 0 0 0 0 3 5 0 0 0 FFFFTFTFFFFFFF2 83 255 3 139 1 1 1
 79 255 15 140 SDL/TYSA_COLOUR15 138 176 0 67 18 0 17 67 0 138 30 71 11 23 10 0
 0 -17 30 0 138 37 67 26 25 24 0 0 -17 71 0 138 67 37 33 69 85 0 0 -17 37 0 138
 71 30 39 32 38 0 69 -17 69 0 68 53 61 39 71 85 0 36 +17 36 0 34 32 84 39 53 83
 0 0 -15 34 49 0 36 113 0 17 84 0 34 36 105 51 50 98 0 75 -17 105 0 34 84 35 48
 46 96 0 0 -17 50 0 74 66 75 48 84 98 0 78 +17 78 0 103 46 80 48 66 79 0 105 +17
 35 0 34 105 32 44 29 72 0 0 -81 1 134 269 128 64 0 111 110 131 141 83 3 136 1 1
 1 81 1 111 289 109 64 134 0 107 115 142 81 1 110 268 128 106 0 107 129 134 143
 83 3 141 1 1 1 81 1 129 267 128 104 0 115 123 110 144 83 3 143 1 1 1 81 1 115 2
90 109 104 129 0 111 118 145 83 3 144 1 1 1 82 1 145 -58457997 82 1 142 -6527374
0 50 117 70 0 113 114 108 0 +0 0 0 0 1 0 0 0 1 50 114 3 0 64 0 117 0 +0 .001 0 0
 1 0 0 0 1 81 1 119 265 128 16 0 118 0 123 146 83 3 130 1 1 1 83 3 146 1 1 1 79
 14 127 SWEntUnchanged82 1 121 -57933708 82 1 112 -58720140 19 17 100 0 1 0 9 5
 S0 74 4 CI16 index_map_offset0 0 1 dCCZ20 15 9 0 0 147 148 132 149 150 151 13 1
35 2 0 0 0 0 0 0 0 0 0 0 0 81 2 147 124 152 1 0 148 0 0 0 153 81 2 148 128 154 1
 147 149 0 0 0 155 81 1 149 200 156 1 148 150 0 0 157 81 2 150 210 158 1 149 151
 0 0 159 0 81 2 151 240 160 1 150 13 0 0 0 161 81 2 13 255 162 1 151 2 0 0 0 0 8
0 2 162 163 164 9000 0 0 0 0 3 5 0 0 0 FFTFFFFFFFFFFF9 1 79 16 164 BODY_RECIPE_2
00180 2 160 165 166 9000 0 0 0 0 3 5 0 0 0 FFTFFFFFFFFFFF9 1 82 1 161 1 79 24 16
6 BODY_IN_LIGHTWEIGHT_PERM80 2 158 167 168 8004 0 0 0 0 3 5 0 0 0 FFTFFFFFFFFFFF
2 3 83 1 159 1 79 16 168 SDL/TYSA_DENSITY80 1 156 169 170 9000 1 1 1 1 1 1 1 1 0
 FFTFFFFFFFFFFF1 82 1 157 3931162 79 10 170 BODY_MATCH80 2 154 171 172 9000 0 0
 0 0 3 5 0 0 0 FFTFFFFFFFFFFF9 1 82 1 155 42 79 30 172 LAST_BODY_MODIFYING_FEATU
RE_ID80 2 152 173 174 9000 0 0 0 0 3 5 0 0 0 FFTFFFFFFFFFFF9 1 82 1 153 113 79 1
9 174 ENT_TIME_STAMP_200180 2 12 175 176 9000 0 0 0 0 3 5 0 0 0 FFTFFFFFFFFFFF9
 1 82 1 14 101 79 12 176 ATOM_ID_20011 0 
