**ABCDEFGHIJKLMNOPQRSTUVWXYZabcdefghijklmnopqrstuvwxyz**************************
**PARASOLID !"#$%&'()*+,-./:;<=>?@[\]^_`{|}~0123456789**************************
**PART1;
MC=AMD64;
MC_MODEL=Intel64 Family 6 Model 158 Stepping 13, GenuineIntel;
MC_ID=unknown;
OS=Windows_NT;
OS_RELEASE=unknown;
FRU=Parasolid Version 32.1, build 255,  1- 1-2021;
APPL=SOLIDWORKS 2021-2021301;
SITE=;
USER=unknown;
FORMAT=text;
GUISE=transmit;
KEY=unicaSuperficie;
FILE=unicaSuperficie.x_t;
DATE=Fri Jun  3 21:46:56 2022;
**PART2;
SCH=SCH_3201255_32001;
USFLD_SIZE=0;
**PART3;
**END_OF_HEADER*****************************************************************
T51 : TRANSMIT FILE created by modeller version 320125523 SCH_3201255_32001_1300
6229 0 10 20 CCCCCCCI4 mesh1006 0 I8 polyline1008 0 CCCCCCCCCCA16 mesh_offset_da
ta206 0 Z1 21 2 3 0 0 0 0 0 0 0 1e3 1e-8 0 0 0 1 0 1 4 0 81 255 1 2 21 5 1 0 0 0
 0 0 70 11 CI9 list_type0 0 1 uI10 notransmit0 0 1 lCCCDCCDI12 finger_index0 0 1
 dI12 finger_block1012 0 CZ3 0 4 T1 0 0 1 20 1 6 6 11 255 4 19 0 1 7 8 1 9 0 9 0
 12 34 CCCCCCI4 mesh1006 0 I8 polyline1008 0 CCCCCCCDI5 owner1040 0 CCCCCCI13 bo
undary_mesh1006 0 I17 boundary_polyline1008 0 CCCA16 index_map_offset0 0 1 dA9 i
ndex_map82 0 A17 node_id_index_map82 0 A20 schema_embedding_map82 0 A5 child12 0
 A14 lowest_node_id0 0 1 dA16 mesh_offset_data206 0 Z7 278 10 11 0 0 0 0 0 0 1e3
 1e-8 4 12 0 1 0 1 1 13 14 15 16 0 0 17 18 19 0 0 0 0 0 0 0 100 255 8 20 4 0 0 -
1 1530816650231245e-31 3257203834963565e-30 -32346463304491e-28 .079688849427718
8 -.996819786760318 -412157658645028e-30 -.996819786760318 -.0796888494277188 -.
3750800583910435 .0554889412219965 .734122529968946 1 3 ?11 9 17 0 1 7 20 1 21 4
 21 4 100 20 18 9 0 0 -1 1031826984022534e-31 311977870595434e-29 -3514661309652
61e-30 -.996819786760318 -.0796888494277174 3101634633892265e-30 -.0796888494277
174 .996819786760318 -.3750800583910565 .0270411512124526 .757429680021501 1 3 ?
11 21 15 0 1 7 22 1 23 9 23 9 100 22 16 21 0 0 -1 3560355702813845e-30 -32021455
52972535e-30 -347568269680024e-29 -.0796888494277188 .996819786760318 3293857717
653315e-30 .996819786760318 .0796888494277188 -.3750800583910375 .05034830126499
45 .785877470031056 1 3 ?11 23 13 0 1 7 24 1 25 21 0 21 100 24 14 23 0 0 -1 -355
00284485427e-28 -3758609814353995e-30 -3838257892623e-27 .996819786760318 .07968
88494277188 3463758951159565e-30 .0796888494277188 -.996819786760318 -.375080058
3910375 .0787960912745495 .762570319978502 1 3 ?11 25 11 0 1 12 26 1 27 23 0 0 1
2 12 122 28 29 30 31 0 0 0 0 1e3 1e-8 25 32 7 1 0 1 1 33 34 35 36 0 0 37 38 39 0
 0 0 0 0 0 0 100 26 12 25 0 0 -1 -243808838789797e-43 -698296267768627e-29 -6982
96267768627e-29 3491481338843135e-30 1 0 1 -3491481338843135e-30 .73746180487543
7 .0529186212446042 .760000000001128 1 3 ?11 27 9 0 1 32 40 1 41 25 0 0 12 32 60
8 42 43 0 0 0 0 0 0 1e3 1e-8 27 44 12 1 0 1 1 45 46 47 0 0 0 48 49 0 0 0 0 0 0 0
 0 100 40 10 27 0 0 -306450237193752e-29 387165456767115e-29 1 .993297151905574
 -.1155887884540534 3491481338843125e-30 .1155887884540534 .993297151905574 -349
1481338843125e-30 .539919941608962 .0529186212434987 .76 1 3 ?11 41 7 0 1 44 50
 1 51 27 0 0 12 44 171 52 53 0 0 0 0 0 0 1e3 1e-8 41 54 32 1 0 1 1 55 56 57 0 0
 0 58 59 0 0 0 0 0 0 0 0 100 50 8 41 0 0 -3491481338843135e-30 3491481338843135e
-30 1 1 1219044193948984e-44 3491481338843135e-30 0 1 -3491481338843135e-30 .399
9199416089625 .0529186212434983 .76 1 3 ?11 51 5 0 1 54 60 1 61 41 0 0 12 54 170
 62 63 0 0 0 0 0 0 1e3 1e-8 51 64 44 1 0 1 1 65 66 67 0 0 0 68 69 0 0 0 0 0 0 0
 0 100 60 6 51 0 0 -3491481338843135e-30 3491481338843135e-30 1 1 12190441939489
84e-44 3491481338843135e-30 0 1 -3491481338843135e-30 .3999199416089625 .0529186
212434983 .76 1 3 ?11 61 3 0 1 64 70 1 71 51 0 0 12 64 183 72 73 0 0 0 0 0 0 1e3
 1e-8 61 74 54 1 0 1 1 75 76 77 0 0 0 78 79 0 0 0 0 0 0 0 0 100 70 4 61 0 0 -349
1481338843135e-30 3491481338843135e-30 1 1 1219044193948984e-44 3491481338843135
e-30 0 1 -3491481338843135e-30 .3999199416089625 .0529186212434983 .76 1 3 ?11 7
1 1 0 1 74 80 1 0 61 0 0 12 74 179 81 82 0 0 0 0 0 0 1e3 1e-8 71 83 64 1 0 1 1 8
4 85 86 0 0 0 87 88 0 0 0 0 0 0 0 0 100 80 2 71 0 0 -3491481338843135e-30 349148
1338843135e-30 1 1 1219044193948984e-44 3491481338843135e-30 0 1 -34914813388431
35e-30 -.03008005839103745 .0529186212434968 .76 1 3 ?81 1 81 179 5 74 89 0 0 0
 90 70 82 0 4 T74 0 0 4 20 1 91 91 13 255 84 35 0 74 0 92 0 0 93 0 51 255 85 34
 0 94 95 0 0 -0 0 .38 0 0 -1 .026 -1 0 0 31 255 86 6 0 88 96 0 0 +0 0 .38 0 0 1
 1 0 0 .026 19 8 CCCCCCCA5 owner12 0 Z87 1 0 74 93 0 97 V0 16 255 88 5 0 ?98 0 9
9 86 0 0 74 17 255 98 0 100 98 98 0 101 88 0 0 +16 99 61 0 ?102 88 103 96 0 0 74
 17 102 0 104 102 102 0 105 99 0 0 +16 103 86 0 ?106 99 107 108 0 0 74 31 96 83
 0 99 108 86 0 +0 0 .38 0 0 1 1 0 0 .025 31 108 124 0 103 109 96 0 +0 0 -.38 0 0
 1 1 0 0 .026 31 109 126 0 107 0 108 0 +0 0 -.38 0 0 1 1 0 0 .025 16 107 89 0 ?1
10 103 0 109 0 0 74 17 110 0 111 110 110 0 112 107 0 0 +15 255 111 105 0 110 113
 114 17 112 0 115 112 112 0 110 107 0 0 -15 115 115 0 112 116 0 14 255 116 64 11
7 ?113 94 104 84 118 +0 0 113 94 97 81 1 117 177 119 116 120 0 121 122 123 14 11
3 102 122 ?0 116 111 84 124 -0 0 0 116 97 14 94 31 121 ?116 92 125 84 85 -0 0 11
6 92 97 15 104 66 0 102 116 115 51 118 79 0 116 124 95 0 -0 0 .38 0 0 -1 .025 -1
 0 0 13 97 3 0 0 0 0 0 0 87 92 14 92 54 126 ?94 0 100 84 95 +0 0 94 0 97 81 1 12
6 175 119 92 127 0 0 121 128 15 100 7 0 98 92 129 50 255 95 10 0 92 118 85 0 +0
 0 .38 0 0 1 1 0 0 15 129 51 0 105 92 0 17 105 0 129 105 105 0 102 99 0 0 -80 25
5 1 119 0 130 8001 0 0 0 0 3 5 0 0 0 FFFFTFTFFFFFFF2 81 1 127 173 131 92 0 126 1
32 0 133 81 1 121 176 119 94 132 0 126 117 134 83 255 3 128 .792156862745098 .81
9607843137255 .933333333333333 81 1 132 171 131 94 0 121 135 127 136 83 3 134 .7
92156862745098 .819607843137255 .933333333333333 80 1 131 137 138 9000 1 1 1 1 1
 1 1 1 0 FFFFTFTFFFFFFF1 81 1 135 169 131 113 0 122 120 132 139 82 255 1 136 -70
2480274 81 1 122 178 119 113 135 0 117 0 140 81 1 120 167 131 116 0 117 0 135 14
1 82 1 139 -695467922 82 1 141 -698941330 83 3 140 .792156862745098 .81960784313
7255 .933333333333333 79 255 14 138 SWEntUnchanged82 1 133 -696516498 79 15 130
 SDL/TYSA_COLOUR50 124 121 0 113 0 118 0 +0 0 -.38 0 0 1 1 0 0 15 125 30 0 101 9
4 142 17 101 0 125 101 101 0 98 88 0 0 -15 142 100 0 106 94 0 17 106 0 142 106 1
06 0 143 103 0 0 +17 143 0 114 143 143 0 106 103 0 0 -15 114 106 0 143 113 0 83
 3 123 .792156862745098 .819607843137255 .933333333333333 19 93 36 0 74 0 87 84
 S0 74 4 CI16 index_map_offset0 0 1 dCCZ20 91 4 0 0 127 89 122 81 0 0 0 0 0 0 0
 0 0 0 0 0 0 0 0 0 81 2 89 149 144 74 0 81 0 0 145 0 80 2 144 146 147 8004 0 0 0
 0 3 5 0 0 0 FFTFFFFFFFFFFF2 3 83 1 145 1 79 16 147 SDL/TYSA_DENSITY80 1 5 148 1
49 8017 0 0 0 0 0 0 0 0 0 TTTTTTTTTTTTTF3 84 255 12 90 corposupmain79 13 149 SDL
/TYSA_NAME81 1 72 183 5 64 150 0 0 0 151 70 73 0 4 T64 0 0 4 20 1 152 152 13 75
 35 0 64 0 153 0 0 154 0 51 76 34 0 155 156 0 0 -0 0 .05 0 0 -1 .026 -1 0 0 31 7
7 6 0 79 157 0 0 +0 0 .05 0 0 1 1 0 0 .026 19 78 1 0 64 154 0 158 V0 16 79 5 0 ?
159 0 160 77 0 0 64 17 159 0 161 159 159 0 162 79 0 0 +16 160 61 0 ?163 79 164 1
57 0 0 64 17 163 0 165 163 163 0 166 160 0 0 +16 164 86 0 ?167 160 168 169 0 0 6
4 31 157 83 0 160 169 77 0 +0 0 .05 0 0 1 1 0 0 .025 31 169 124 0 164 170 157 0
 +0 0 -.05 0 0 1 1 0 0 .026 31 170 126 0 168 0 169 0 +0 0 -.05 0 0 1 1 0 0 .025
 16 168 89 0 ?171 164 0 170 0 0 64 17 171 0 172 171 171 0 173 168 0 0 +15 172 10
5 0 171 174 175 17 173 0 176 173 173 0 171 168 0 0 -15 176 115 0 173 177 0 14 17
7 64 178 ?174 155 165 75 179 +0 0 174 155 158 81 1 178 181 119 177 180 0 181 182
 183 14 174 102 182 ?0 177 172 75 184 -0 0 0 177 158 14 155 31 181 ?177 153 185
 75 76 -0 0 177 153 158 15 165 66 0 163 177 176 51 179 79 0 177 184 156 0 -0 0 .
05 0 0 -1 .025 -1 0 0 13 158 3 0 0 0 0 0 0 78 153 14 153 54 186 ?155 0 161 75 15
6 +0 0 155 0 158 81 1 186 179 119 153 187 0 0 181 188 15 161 7 0 159 153 189 50
 156 10 0 153 179 76 0 +0 0 .05 0 0 1 1 0 0 15 189 51 0 166 153 0 17 166 0 189 1
66 166 0 163 160 0 0 -81 1 187 177 131 153 0 186 190 0 191 81 1 181 180 119 155
 190 0 186 178 192 83 3 188 .792156862745098 .819607843137255 .933333333333333 8
1 1 190 175 131 155 0 181 193 187 194 83 3 192 .792156862745098 .819607843137255
 .933333333333333 81 1 193 173 131 174 0 182 180 190 195 82 1 194 -1931673497 81
 1 182 182 119 174 193 0 178 0 196 81 1 180 171 131 177 0 178 0 193 197 82 1 195
 -1924857753 82 1 197 -1935212441 83 3 196 .792156862745098 .819607843137255 .93
3333333333333 82 1 191 -1929248665 50 184 121 0 174 0 179 0 +0 0 -.05 0 0 1 1 0
 0 15 185 30 0 162 155 198 17 162 0 185 162 162 0 159 79 0 0 -15 198 100 0 167 1
55 0 17 167 0 198 167 167 0 199 164 0 0 +17 199 0 175 199 199 0 167 164 0 0 -15
 175 106 0 199 174 0 83 3 183 .792156862745098 .819607843137255 .933333333333333
 19 154 36 0 64 0 78 75 S0 74 20 152 4 0 0 187 150 182 72 0 0 0 0 0 0 0 0 0 0 0
 0 0 0 0 0 81 2 150 149 144 64 0 72 0 0 200 0 83 1 200 1 84 8 151 conector81 1 6
2 170 5 54 201 0 0 0 202 70 63 0 4 T54 0 0 4 20 1 203 203 13 65 35 0 54 0 204 0
 0 205 0 51 66 34 0 206 207 0 0 -0 0 -.075 0 0 1 .025 1 0 0 31 67 6 0 69 208 0 0
 +0 0 -.075 0 0 -1 -1 0 0 .025 19 68 1 0 54 205 0 209 V0 16 69 5 0 ?210 0 211 67
 0 0 54 17 210 0 212 210 210 0 213 69 0 0 +16 211 61 0 ?214 69 215 208 0 0 54 17
 214 0 216 214 214 0 217 211 0 0 +16 215 86 0 ?218 211 219 220 0 0 54 31 208 83
 0 211 220 67 0 +0 0 -.075 0 0 -1 -1 0 0 .024 31 220 124 0 215 221 208 0 +0 0 -.
049 0 0 -1 -1 0 0 .025 31 221 126 0 219 0 220 0 +0 0 -.049 0 0 -1 -1 0 0 .024 16
 219 89 0 ?222 215 0 221 0 0 54 17 222 0 223 222 222 0 224 219 0 0 +15 223 105 0
 222 225 226 17 224 0 227 224 224 0 222 219 0 0 -15 227 115 0 224 228 0 14 228 6
4 229 ?225 206 216 65 230 +0 0 225 206 209 81 1 229 168 119 228 231 0 232 233 23
4 14 225 102 233 ?0 228 223 65 235 -0 0 0 228 209 14 206 31 232 ?228 204 236 65
 66 -0 0 228 204 209 15 216 66 0 214 228 227 51 230 79 0 228 235 207 0 -0 0 -.07
5 0 0 1 .024 1 0 0 13 209 3 0 0 0 0 0 0 68 204 14 204 54 237 ?206 0 212 65 207 +
0 0 206 0 209 81 1 237 166 119 204 238 0 0 232 239 15 212 7 0 210 204 240 50 207
 10 0 204 230 66 0 +0 0 -.075 0 0 -1 -1 0 0 15 240 51 0 217 204 0 17 217 0 240 2
17 217 0 214 211 0 0 -81 1 238 164 131 204 0 237 241 0 242 81 1 232 167 119 206
 241 0 237 229 243 83 3 239 .792156862745098 .819607843137255 .933333333333333 8
1 1 241 162 131 206 0 232 244 238 245 83 3 243 .792156862745098 .819607843137255
 .933333333333333 81 1 244 160 131 225 0 233 231 241 246 82 1 245 -816709526 81
 1 233 169 119 225 244 0 229 0 247 81 1 231 158 131 228 0 229 0 244 248 82 1 246
 -809697174 82 1 248 -813170582 83 3 247 .792156862745098 .819607843137255 .9333
33333333333 82 1 242 -810745750 50 235 121 0 225 0 230 0 +0 0 -.049 0 0 -1 -1 0
 0 15 236 30 0 213 206 249 17 213 0 236 213 213 0 210 69 0 0 -15 249 100 0 218 2
06 0 17 218 0 249 218 218 0 250 215 0 0 +17 250 0 226 250 250 0 218 215 0 0 -15
 226 106 0 250 225 0 83 3 234 .792156862745098 .819607843137255 .933333333333333
 19 205 36 0 54 0 68 65 S0 74 20 203 4 0 0 238 201 233 62 0 0 0 0 0 0 0 0 0 0 0
 0 0 0 0 0 81 2 201 144 144 54 0 62 0 0 251 0 83 1 251 1 84 8 202 conector81 1 5
2 171 5 44 252 0 0 0 253 70 53 0 4 T44 0 0 4 20 1 254 254 13 55 35 0 44 0 255 0
 0 256 0 51 56 34 0 257 258 0 0 -0 0 .075 0 0 -1 .025 -1 0 0 31 57 6 0 59 259 0
 0 +0 0 .075 0 0 1 1 0 0 .025 19 58 1 0 44 256 0 260 V0 16 59 5 0 ?261 0 262 57
 0 0 44 17 261 0 263 261 261 0 264 59 0 0 +16 262 61 0 ?265 59 266 259 0 0 44 17
 265 0 267 265 265 0 268 262 0 0 +16 266 86 0 ?269 262 270 271 0 0 44 31 259 83
 0 262 271 57 0 +0 0 .075 0 0 1 1 0 0 .024 31 271 124 0 266 272 259 0 +0 0 .049
 0 0 1 1 0 0 .025 31 272 126 0 270 0 271 0 +0 0 .049 0 0 1 1 0 0 .024 16 270 89
 0 ?273 266 0 272 0 0 44 17 273 0 274 273 273 0 275 270 0 0 +15 274 105 0 273 27
6 277 17 275 0 278 275 275 0 273 270 0 0 -15 278 115 0 275 279 0 14 279 64 280 ?
276 257 267 55 281 +0 0 276 257 260 81 1 280 169 119 279 282 0 283 284 285 14 27
6 102 284 ?0 279 274 55 286 -0 0 0 279 260 14 257 31 283 ?279 255 287 55 56 -0 0
 279 255 260 15 267 66 0 265 279 278 51 281 79 0 279 286 258 0 -0 0 .075 0 0 -1
 .024 -1 0 0 13 260 3 0 0 0 0 0 0 58 255 14 255 54 288 ?257 0 263 55 258 +0 0 25
7 0 260 81 1 288 167 119 255 289 0 0 283 290 15 263 7 0 261 255 291 50 258 10 0
 255 281 56 0 +0 0 .075 0 0 1 1 0 0 15 291 51 0 268 255 0 17 268 0 291 268 268 0
 265 262 0 0 -81 1 289 165 131 255 0 288 292 0 293 81 1 283 168 119 257 292 0 28
8 280 294 83 3 290 .792156862745098 .819607843137255 .933333333333333 81 1 292 1
63 131 257 0 283 295 289 296 83 3 294 .792156862745098 .819607843137255 .9333333
33333333 81 1 295 161 131 276 0 284 282 292 297 82 1 296 -793771923 81 1 284 170
 119 276 295 0 280 0 298 81 1 282 159 131 279 0 280 0 295 299 82 1 297 -78675957
1 82 1 299 -790232979 83 3 298 .792156862745098 .819607843137255 .93333333333333
3 82 1 293 -787808147 50 286 121 0 276 0 281 0 +0 0 .049 0 0 1 1 0 0 15 287 30 0
 264 257 300 17 264 0 287 264 264 0 261 59 0 0 -15 300 100 0 269 257 0 17 269 0
 300 269 269 0 301 266 0 0 +17 301 0 277 301 301 0 269 266 0 0 -15 277 106 0 301
 276 0 83 3 285 .792156862745098 .819607843137255 .933333333333333 19 256 36 0 4
4 0 58 55 S0 74 20 254 4 0 0 289 252 284 52 0 0 0 0 0 0 0 0 0 0 0 0 0 0 0 0 81 2
 252 145 144 44 0 52 0 0 302 0 83 1 302 1 84 8 253 conector81 1 42 608 5 32 303
 0 0 0 304 70 43 0 4 T32 0 0 4 20 1 305 305 13 45 35 0 32 0 306 0 0 307 0 51 46
 34 0 308 309 0 0 -0 0 .09 0 0 -1 .026 -1 0 0 31 47 6 0 49 310 0 0 +0 0 .09 0 0
 1 1 0 0 .026 19 48 1 0 32 307 0 311 V0 16 49 5 0 ?312 0 313 47 0 0 32 17 312 0
 314 312 312 0 315 49 0 0 +16 313 61 0 ?316 49 317 310 0 0 32 17 316 0 318 316 3
16 0 319 313 0 0 +16 317 86 0 ?320 313 321 322 0 0 32 31 310 83 0 313 322 47 0 +
0 0 .09 0 0 1 1 0 0 .025 31 322 124 0 317 323 310 0 +0 0 -.09 0 0 1 1 0 0 .026 3
1 323 126 0 321 0 322 0 +0 0 -.09 0 0 1 1 0 0 .025 16 321 89 0 ?324 317 0 323 0
 0 32 17 324 0 325 324 324 0 326 321 0 0 +15 325 105 0 324 327 328 17 326 0 329
 326 326 0 324 321 0 0 -15 329 115 0 326 330 0 14 330 64 331 ?327 308 318 45 332
 +0 0 327 308 311 81 1 331 606 119 330 333 0 334 335 336 14 327 102 335 ?0 330 3
25 45 337 -0 0 0 330 311 14 308 31 334 ?330 306 338 45 46 -0 0 330 306 311 15 31
8 66 0 316 330 329 51 332 79 0 330 337 309 0 -0 0 .09 0 0 -1 .025 -1 0 0 13 311
 3 0 0 0 0 0 0 48 306 14 306 54 339 ?308 0 314 45 309 +0 0 308 0 311 81 1 339 60
4 119 306 340 0 0 334 341 15 314 7 0 312 306 342 50 309 10 0 306 332 46 0 +0 0 .
09 0 0 1 1 0 0 15 342 51 0 319 306 0 17 319 0 342 319 319 0 316 313 0 0 -81 1 34
0 602 131 306 0 339 343 0 344 81 1 334 605 119 308 343 0 339 331 345 83 3 341 .7
92156862745098 .819607843137255 .933333333333333 81 1 343 600 131 308 0 334 346
 340 347 83 3 345 .792156862745098 .819607843137255 .933333333333333 81 1 346 59
8 131 327 0 335 333 343 348 82 1 347 -1295712150 81 1 335 607 119 327 346 0 331
 0 349 81 1 333 596 131 330 0 331 0 346 350 82 1 348 -1288699798 82 1 350 -12921
73206 83 3 349 .792156862745098 .819607843137255 .933333333333333 82 1 344 -1289
748374 50 337 121 0 327 0 332 0 +0 0 -.09 0 0 1 1 0 0 15 338 30 0 315 308 351 17
 315 0 338 315 315 0 312 49 0 0 -15 351 100 0 320 308 0 17 320 0 351 320 320 0 3
52 317 0 0 +17 352 0 328 352 352 0 320 317 0 0 -15 328 106 0 352 327 0 83 3 336
 .792156862745098 .819607843137255 .933333333333333 19 307 36 0 32 0 48 45 S0 74
 20 305 4 0 0 340 303 335 42 0 0 0 0 0 0 0 0 0 0 0 0 0 0 0 0 81 2 303 149 144 32
 0 42 0 0 353 0 83 1 353 1 84 8 304 contcone81 1 28 122 5 12 354 0 0 0 355 70 29
 0 4 T12 0 0 4 20 1 356 356 68 255 30 18 0 12 357 0 358 +31 -58492273524724e-27
 -258408745790195e-28 0 1 0 0 -731142577037325e-28 -323027195270331e-28 0 ?.0789
347498618511 ?0 1 0 ?134 255 31 7 0 12 0 0 359 +360 361 13 33 3 0 12 0 362 0 0 3
63 0 52 255 34 84 0 362 364 0 0 +.1074999999998356 -258408745790195e-28 0 -1 0 0
 .0259988750000362 .999123349124025 .0418632683290644 0 0 1 31 35 81 0 365 366 0
 0 +.1074999999998356 -258408745790195e-28 0 1 0 0 0 0 -1 .0259988750000362 29 2
55 36 83 0 367 368 0 -731142577037325e-28 -323027195270331e-28 0 19 37 1 0 12 36
3 0 369 V0 16 38 15 0 ?370 0 365 371 0 0 12 18 255 39 56 0 372 0 367 368 ?12 17
 372 0 373 372 372 39 0 0 0 0 ?18 367 79 0 374 39 0 36 ?12 29 368 58 0 39 0 36 .
002492949337692525 -258446692866232e-28 0 17 374 0 375 374 374 367 0 0 0 0 ?15 3
75 76 0 374 376 0 14 376 72 377 ?0 378 379 33 364 -0 0 0 378 369 81 1 377 121 11
9 376 380 0 381 0 382 14 378 17 381 ?376 362 373 33 383 +0 0 376 362 369 15 379
 75 0 384 376 375 68 364 80 0 376 385 34 0 +366 -58492273524724e-27 -25840874579
0195e-28 0 1 0 0 -731142577037325e-28 -323027195270331e-28 0 ?.0789347498618511
 ?0 1 0 0 13 369 65 0 0 0 0 0 0 37 362 14 362 64 386 ?378 0 387 33 34 +0 0 378 0
 369 81 1 386 119 119 362 388 0 0 381 389 15 387 63 0 390 362 391 17 390 0 387 3
90 390 0 370 38 0 0 -15 391 71 0 392 362 0 17 392 0 391 392 392 0 384 365 0 0 +1
7 384 0 379 384 384 0 392 365 0 0 -16 365 77 0 ?392 38 0 35 0 0 12 17 370 0 393
 370 370 0 390 38 0 0 +15 393 24 0 370 378 0 81 1 388 117 131 362 0 386 394 0 39
5 81 1 381 120 119 378 394 0 386 377 396 83 3 389 .792156862745098 .819607843137
255 .933333333333333 81 1 394 115 131 378 0 381 380 388 397 83 3 396 .7921568627
45098 .819607843137255 .933333333333333 81 1 380 113 131 376 0 377 0 394 398 82
 1 397 -1993801623 82 1 398 -1991638935 82 1 395 -1987641239 68 385 42 0 12 383
 364 399 +400 -58492273524724e-27 -258408745790195e-28 0 1 0 0 ????0 1 0 ?134 36
6 82 0 12 400 35 401 +402 403 134 400 43 0 12 371 366 404 +405 406 141 255 401 3
64 401 401 366 136 255 402 2 3 3 2 5 FFF1 407 408 409 135 255 403 2 0 45 255 9 4
07 -731142577037325e-28 -323027195270331e-28 0 .0537499999998813 .02374674999997
095 0 .1074999999998356 .02599887500001035 0 127 255 2 408 3 3 128 255 2 409 .07
89347498618511 .916266795440447 31 371 55 0 38 0 400 0 +.1075418632681648 -25840
8745790195e-28 0 1 0 0 0 1 0 .02499975165091215 141 404 385 404 404 400 136 405
 2 3 3 2 5 FFF1 410 411 412 135 406 2 0 45 9 410 .002094821482110615 .0009173299
35498853 0 .0547974107409732 .0237906365100235 0 .1074999999998356 .025998875000
01035 0 127 4 411 3 3 0 0 128 4 412 .0952515978320872 .916266795440447 ??60 255
 383 44 0 378 0 385 0 +VF385 .001 3903127820947815e-33 141 399 383 399 399 385 1
5 373 57 0 372 378 393 83 3 382 .792156862745098 .819607843137255 .9333333333333
33 19 363 68 0 12 0 37 33 S0 141 359 30 359 359 31 136 360 2 3 3 2 5 FFF1 413 41
4 415 135 361 2 0 45 9 413 -731142577037325e-28 -323027195270331e-28 0 .05374999
99998813 .02374674999997095 0 .1074999999998356 .02599887500001035 0 127 2 414 3
 3 128 2 415 .0789347498618511 .916266795440447 60 357 41 0 12 0 30 0 +UF30 .001
 ?141 358 357 358 358 30 74 20 356 4 0 0 388 354 377 28 0 0 0 0 0 0 0 0 0 0 0 0
 0 0 0 0 81 2 354 102 144 12 0 28 0 0 416 0 83 1 416 1 84 7 355 conesup81 1 10 2
78 5 7 417 0 0 0 418 70 11 0 4 T7 0 0 4 20 1 419 419 13 13 3 0 7 0 420 0 0 421 0
 50 14 198 0 422 423 0 424 +.035 0 0 0 0 1 -1982541115402065e-31 1 0 137 255 15
 206 0 7 425 0 426 +14 427 0 ?29 16 106 0 428 429 0 .035 0 0 19 17 5 0 7 421 0 4
30 V0 16 18 117 0 1e-6 431 0 432 0 0 0 7 18 19 15 0 433 0 434 435 1e-6 7 17 433
 0 436 437 438 19 439 432 440 441 +18 434 13 0 431 19 442 443 1e-6 7 29 435 64 0
 19 444 443 -.035 -4286263797015735e-33 .001 29 444 63 0 445 0 435 .035 0 .001 2
9 443 65 0 434 435 446 -.01045584118581576 .04995 .001 29 446 66 0 442 443 447 .
035 .07 .001 18 442 11 0 448 434 445 446 1e-6 7 29 447 109 0 449 446 450 .035 .0
7 0 18 449 99 0 451 452 428 447 1e-6 7 29 450 108 0 452 447 429 -.01045584118581
576 .04995 0 18 452 98 0 453 454 449 450 1e-6 7 29 429 107 0 454 450 16 -.035 -4
286263797015735e-33 0 18 454 97 0 439 445 452 429 1e-6 7 17 439 0 455 456 457 45
4 433 432 458 459 -18 445 10 0 460 442 454 444 1e-6 7 17 460 0 455 457 456 445 4
61 462 463 464 +15 455 115 0 439 465 0 17 457 0 455 439 460 19 464 466 467 0 -17
 456 0 455 460 439 428 459 468 469 470 +17 461 0 471 472 473 428 460 462 474 456
 -16 462 111 0 1e-6 460 432 475 0 0 0 7 133 255 463 171 0 460 476 477 0 +477 .03
5 0 0 .035 0 .001 0 1 17 464 0 478 479 441 445 457 466 480 473 +15 478 7 0 479 4
81 0 17 479 0 478 482 464 442 473 483 484 0 +17 441 0 478 464 482 19 437 485 486
 457 +16 466 16 0 5e-7 464 485 487 0 0 0 7 133 480 137 0 464 488 489 0 +490 -.03
5 -4286263797015735e-33 .001 .035 0 .001 1 0 17 473 0 471 461 448 445 479 483 49
1 0 -15 471 112 0 461 492 0 17 448 0 471 473 472 442 451 475 493 494 +16 483 6 0
 5e-7 479 475 495 0 0 0 7 133 491 133 0 473 496 497 0 +497 .035 .07 .001 .035 0
 .001 0 1 137 496 124 0 7 490 491 498 +499 500 0 ?137 497 134 0 7 491 501 502 +5
03 504 0 ?133 501 135 0 472 497 488 0 +488 .035 0 0 .035 .07 0 0 1 141 502 491 5
02 502 497 50 503 132 0 492 499 505 506 +.035 0 .001 1 1982541115402065e-31 0 0
 1 0 134 504 0 0 0 0 0 0 +507 508 136 507 1 2 2 2 5 FFF1 509 510 511 135 508 1 0
 45 4 509 .07 0 0 0 127 2 510 2 2 128 2 511 0 1 14 492 113 512 ?513 465 471 13 5
03 +0 0 513 465 430 60 499 62 0 481 514 503 515 +VF514 .001 ?50 505 146 0 465 50
3 516 517 -.035 0 .001 -612323399573677e-31 1 0 1 612323399573677e-31 0 141 506
 497 518 519 503 141 518 520 521 506 503 141 519 488 506 521 503 137 488 136 0 7
 501 480 522 +503 523 0 ?141 521 524 519 518 503 137 524 174 0 7 474 440 525 +50
3 526 0 ?133 474 173 0 461 477 524 0 +524 .035 0 .001 .035 0 0 0 1 133 440 175 0
 433 524 527 0 +527 -.035 -4286263797015735e-33 0 -.035 -4286263797015735e-33 .0
01 0 1 141 525 474 525 525 524 134 526 0 0 0 0 0 0 +528 529 136 528 1 2 2 2 5 FF
F1 530 531 532 135 529 1 0 45 4 530 0 0 0 -.001 127 2 531 2 2 128 2 532 0 1 137
 527 176 0 7 440 458 533 +516 534 0 ?133 458 177 0 439 527 535 0 +535 -.035 -428
6263797015735e-33 .001 -.035 -4286263797015735e-33 0 0 1 141 533 440 533 533 527
 50 516 156 0 420 505 423 536 --.035 -4286263797015735e-33 .001 .897502294179074
 -.441009786675193 0 -.441009786675193 -.897502294179074 0 134 534 0 0 0 0 0 0 +
537 538 136 537 1 2 2 2 5 FFF1 539 540 541 135 538 1 0 45 4 539 0 .001 0 0 127 2
 540 2 2 128 2 541 0 1 14 420 119 542 ?465 0 436 13 516 +0 0 465 0 430 50 423 16
6 0 513 516 14 543 +.035 .07 .001 -.403572008266902 .914947886025985 0 -.9149478
86025986 -.403572008266902 0 141 536 544 545 546 516 137 544 158 0 7 547 548 549
 +516 550 0 ?141 545 551 552 536 516 141 546 553 536 552 516 137 553 160 0 7 548
 554 555 +516 556 0 ?141 552 527 546 545 516 133 548 159 0 438 544 553 0 +553 -.
01045584118581576 .04995 0 -.035 -4286263797015735e-33 0 0 1 133 554 161 0 482 5
53 557 0 +496 .035 .07 .001 -.01045584118581576 .04995 .001 0 1 141 555 548 555
 555 553 134 556 0 0 0 0 0 0 +558 559 136 558 1 2 2 2 5 FFF1 560 561 562 135 559
 1 0 45 4 560 -.0556544538370102 .001 0 .001 127 2 561 2 2 128 2 562 0 1 17 482
 0 478 441 479 434 494 495 554 437 +133 557 167 0 494 554 563 0 +563 -.010455841
18581576 .04995 .001 .035 .07 .001 0 1 17 494 0 564 451 431 442 482 495 557 479
 -137 563 168 0 7 557 565 566 +423 567 0 ?133 565 169 0 568 563 476 0 +476 .035
 .07 0 -.01045584118581576 .04995 0 0 1 141 566 557 566 566 563 134 567 0 0 0 0
 0 0 +569 570 136 569 1 2 2 2 5 FFF1 571 572 573 135 570 1 0 45 4 571 .049681344
5662464 -216840434497101e-33 0 0 127 2 572 2 2 128 2 573 0 1 17 568 0 564 431 45
1 452 574 575 565 0 +137 476 170 0 7 565 463 576 +423 577 0 ?141 576 565 576 576
 476 134 577 0 0 0 0 0 0 +578 579 136 578 1 2 2 2 5 FFF1 580 581 582 135 579 1 0
 45 4 580 0 -.001 .0496813445662464 -.001 127 2 581 2 2 128 2 582 0 1 15 564 83
 0 568 513 0 17 431 0 564 494 568 434 453 18 583 482 +17 451 0 564 568 494 449 4
48 475 584 574 -17 574 0 585 470 586 449 568 575 425 472 -16 575 90 0 5e-7 568 4
87 587 0 0 0 7 16 487 88 0 5e-7 472 466 575 0 0 0 7 16 587 92 0 5e-7 438 575 468
 0 0 0 7 17 438 0 436 433 453 454 586 587 548 0 +16 468 94 0 5e-7 456 587 0 0 0
 0 7 15 436 118 0 453 420 0 17 453 0 436 438 437 452 431 18 588 586 -17 586 0 58
5 574 459 452 438 587 589 568 -15 585 87 0 470 422 0 17 459 0 585 586 470 454 45
6 468 590 438 -133 589 203 0 586 591 592 0 +592 -.035 -4286263797015735e-33 0 -.
01045584118581576 .04995 0 0 1 137 591 202 0 7 590 589 593 +14 594 0 ?137 592 20
4 0 7 589 425 595 +14 596 0 ?133 425 205 0 574 592 15 0 +15 -.01045584118581576
 .04995 0 .035 .07 0 0 1 141 595 589 595 595 592 134 596 0 0 0 0 0 0 +597 598 13
6 597 1 2 2 2 5 FFF1 599 600 601 135 598 2 0 45 4 599 959152401079872e-32 .07 .0
4995 .0454558411858158 127 2 600 2 2 128 2 601 0 1 133 590 201 0 459 602 591 0 +
591 .035 0 0 -.035 -4286263797015735e-33 0 0 1 141 593 590 593 593 591 134 594 0
 0 0 0 0 0 +603 604 136 603 1 2 2 2 5 FFF1 605 606 607 135 604 2 0 45 4 605 0 0
 959152401079872e-32 .07 127 2 606 2 2 128 2 607 0 1 137 602 200 0 7 608 590 609
 +14 610 0 ?133 608 199 0 470 611 602 0 +602 .035 .07 0 .035 0 0 0 1 141 609 608
 609 609 602 134 610 0 0 0 0 0 0 +612 613 136 612 1 2 2 2 5 FFF1 614 615 616 135
 613 2 0 45 4 614 .07 -1387778780781446e-32 0 0 127 2 615 2 2 128 2 616 0 1 17 4
70 0 585 459 574 428 472 487 608 0 -137 611 186 0 7 584 608 617 +423 618 0 ?133
 584 185 0 451 520 611 0 +611 .035 .07 .001 .035 .07 0 0 1 141 617 584 617 617 6
11 134 618 0 0 0 0 0 0 +619 620 136 619 1 2 2 2 5 FFF1 621 622 623 135 620 1 0 4
5 4 621 0 0 0 -.001 127 2 622 2 2 128 2 623 0 1 137 520 184 0 7 493 584 624 +503
 625 0 ?133 493 183 0 448 551 520 0 +520 .035 .07 0 .035 .07 .001 0 1 141 624 49
3 624 624 520 134 625 0 0 0 0 0 0 +626 627 136 626 1 2 2 2 5 FFF1 628 629 630 13
5 627 1 0 45 4 628 .07 -.001 .07 0 127 2 629 2 2 128 2 630 0 1 137 551 182 0 7 5
88 493 631 +516 632 0 ?133 588 181 0 453 633 551 0 +551 -.01045584118581576 .049
95 .001 -.01045584118581576 .04995 0 0 1 141 631 588 631 631 551 134 632 0 0 0 0
 0 0 +634 635 136 634 1 2 2 2 5 FFF1 636 637 638 135 635 1 0 45 4 636 -.05565445
38370102 216840434497101e-33 -.0556544538370102 .001 127 2 637 2 2 128 2 638 0 1
 137 633 180 0 7 583 588 639 +423 640 0 ?133 583 179 0 431 535 633 0 +633 -.0104
5584118581576 .04995 0 -.01045584118581576 .04995 .001 0 1 141 639 583 639 639 6
33 134 640 0 0 0 0 0 0 +641 642 136 641 1 2 2 2 5 FFF1 643 644 645 135 642 1 0 4
5 4 643 .0496813445662464 -.001 .0496813445662464 -216840434497101e-33 127 2 644
 2 2 128 2 645 0 1 137 535 178 0 7 458 583 646 +505 647 0 ?141 646 458 646 646 5
35 134 647 0 0 0 0 0 0 +648 649 136 648 1 2 2 2 5 FFF1 650 651 652 135 649 1 0 4
5 4 650 -.07 0 -.07 .001 127 2 651 2 2 128 2 652 0 1 18 428 100 0 461 449 0 16 1
e-6 7 17 472 0 471 448 461 449 470 487 501 0 +14 422 84 653 ?0 481 585 13 14 -0
 0 0 481 430 81 1 653 277 119 422 654 0 655 0 656 14 481 2 655 ?422 513 478 13 4
99 +0 0 422 513 430 13 430 77 0 0 0 0 0 0 17 420 81 1 655 276 119 481 657 0 658
 653 659 14 513 76 658 ?481 492 564 13 423 +0 0 481 492 430 81 1 658 275 119 513
 660 0 512 655 661 81 1 660 268 131 513 0 658 657 662 663 81 1 512 274 119 492 6
64 0 665 658 666 83 3 661 .792156862745098 .819607843137255 .933333333333333 81
 1 664 260 131 492 0 512 0 667 668 81 1 665 273 119 465 662 0 542 512 669 83 3 6
66 .792156862745098 .819607843137255 .933333333333333 14 465 116 665 ?492 420 45
5 13 505 +0 0 492 420 430 81 1 662 270 131 465 0 665 660 0 670 81 1 542 272 119
 420 667 0 0 665 671 83 3 669 .792156862745098 .819607843137255 .933333333333333
 81 1 667 262 131 420 0 542 664 654 672 83 3 671 .792156862745098 .8196078431372
55 .933333333333333 81 1 654 264 131 422 0 653 667 657 673 82 1 672 -1957429140
 81 1 657 266 131 481 0 655 654 660 674 82 1 673 -1962606484 82 1 674 -196562114
0 82 1 670 -1957756820 82 1 668 -1958084500 82 1 663 -1958739860 83 3 659 .79215
6862745098 .819607843137255 .933333333333333 83 3 656 .792156862745098 .81960784
3137255 .933333333333333 17 437 0 436 453 433 434 441 485 547 0 -16 485 14 0 5e-
7 441 495 466 0 0 0 7 133 547 157 0 437 486 544 0 +544 -.035 -4286263797015735e-
33 .001 -.01045584118581576 .04995 .001 0 1 133 486 151 0 441 675 547 0 +489 -.0
1045584118581576 .04995 .001 -.035 -4286263797015735e-33 .001 1 0 137 675 150 0
 7 469 486 676 +505 677 0 ?137 489 140 0 7 480 467 678 -499 679 0 ?133 467 147 0
 457 489 680 0 +680 .035 0 .001 -.035 -4286263797015735e-33 .001 0 1 141 678 486
 678 678 489 134 679 0 0 0 0 0 0 +681 682 136 681 1 2 2 2 1 FFF1 683 684 685 135
 682 1 0 45 4 683 0 1 1 1 127 2 684 2 2 128 2 685 0 1 137 680 148 0 7 467 469 68
6 +505 687 0 ?133 469 149 0 456 680 675 0 +675 -.035 -4286263797015735e-33 0 .03
5 0 0 0 1 141 686 467 686 686 680 134 687 0 0 0 0 0 0 +688 689 136 688 1 2 2 2 5
 FFF1 690 691 692 135 689 1 0 45 4 690 0 0 -.07 0 127 2 691 2 2 128 2 692 0 1 14
1 676 469 676 676 675 134 677 0 0 0 0 0 0 +693 694 136 693 1 2 2 2 5 FFF1 695 69
6 697 135 694 1 0 45 4 695 -.07 .001 0 .001 127 2 696 2 2 128 2 697 0 1 16 495 1
2 0 5e-7 482 483 485 0 0 0 7 16 475 110 0 1e-6 448 462 483 0 0 0 7 141 549 547 5
49 549 544 134 550 0 0 0 0 0 0 +698 699 136 698 1 2 2 2 5 FFF1 700 701 702 135 6
99 1 0 45 4 700 0 0 -.0556544538370102 216840434497101e-33 127 2 701 2 2 128 2 7
02 0 1 141 543 563 703 704 423 141 703 611 705 543 423 141 704 476 543 705 423 1
41 705 633 704 703 423 137 477 172 0 7 463 474 706 +505 707 0 ?141 706 463 706 7
06 477 134 707 0 0 0 0 0 0 +708 709 136 708 1 2 2 2 5 FFF1 710 711 712 135 709 1
 0 45 4 710 0 .001 0 0 127 2 711 2 2 128 2 712 0 1 141 522 501 522 522 488 134 5
23 0 0 0 0 0 0 +713 714 136 713 1 2 2 2 5 FFF1 715 716 717 135 714 1 0 45 4 715
 0 -.001 .07 -.001 127 2 716 2 2 128 2 717 0 1 141 517 680 718 719 505 141 718 5
35 720 517 505 141 719 675 517 720 505 141 720 477 719 718 505 124 255 514 17 0
 7 0 499 721 +722 723 141 515 724 725 726 499 137 724 67 0 7 0 484 727 +499 728
 0 ?141 725 496 729 515 499 141 726 490 515 729 499 137 490 122 0 7 484 496 730
 -499 731 0 ?141 729 489 726 725 499 133 484 120 0 479 724 490 0 +724 .035 0 .00
1 .035 .07 .001 0 1 141 730 480 730 730 490 134 731 0 0 0 0 0 0 +732 733 136 732
 1 2 2 2 1 FFF1 734 735 736 135 733 1 0 45 4 734 0 0 0 1 127 2 735 2 2 128 2 736
 0 1 141 727 484 727 727 724 134 728 0 0 0 0 0 0 +737 738 136 737 1 2 2 2 1 FFF1
 739 740 741 135 738 1 0 45 4 739 0 0 1 0 127 2 740 2 2 128 2 741 0 1 141 721 49
9 721 721 514 126 255 722 FF3 3 4 4 5 5 2 2 FFF9 3 742 743 744 745 746 125 255 7
23 0 1 0 1 0 1 0 1 2 BBBBBBBB????0 0 0 0 45 48 742 .035 0 0 .01166666666666666 -
1428754599005246e-33 0 -.01166666666666666 -285750919801049e-32 0 -.035 -4286263
797015735e-33 0 .035 .02333333333333335 0 .01439379542379824 .02110555555555555
 0 -.0062124091524035 .0188777777777778 0 -.02681861372860525 .01665 0 .035 .046
6666666666667 0 .01712092418092985 .0422111111111111 0 -.00075815163814034 .0377
5555555555555 0 -.0186372274572105 .0333 0 .035 .07 0 .0198480529380614 .0633166
666666667 0 .00469610587612282 .0566333333333333 0 -.01045584118581576 .04995 0
 127 2 743 4 4 127 2 744 4 4 128 2 745 0 1 128 2 746 0 1 141 498 554 498 498 496
 134 500 0 0 0 0 0 0 +747 748 136 747 1 2 2 2 1 FFF1 749 750 751 135 748 1 0 45
 4 749 1 0 1 1 127 2 750 2 2 128 2 751 0 1 16 432 114 0 1e-6 433 18 462 0 0 0 7
 19 421 80 0 7 0 17 13 S0 141 426 425 426 426 15 134 427 0 0 0 0 0 0 +752 753 13
6 752 1 2 2 2 5 FFF1 754 755 756 135 753 2 0 45 4 754 .04995 .0454558411858158 .
07 0 127 2 755 2 2 128 2 756 0 1 141 424 602 757 758 14 141 757 15 759 424 14 14
1 758 591 424 759 14 141 759 592 758 757 14 74 20 419 4 0 0 662 417 653 10 0 0 0
 0 0 0 0 0 0 0 0 0 0 0 0 0 81 2 417 228 144 7 0 10 0 0 760 0 83 1 760 1 84 9 418
 stablesup74 20 6 1 0 0 2 0 0 0 0 0 0 0 0 0 0 0 0 0 0 0 0 0 0 0 1 0 
