**ABCDEFGHIJKLMNOPQRSTUVWXYZabcdefghijklmnopqrstuvwxyz**************************
**PARASOLID !"#$%&'()*+,-./:;<=>?@[\]^_`{|}~0123456789**************************
**PART1;
MC=AMD64;
MC_MODEL=Intel64 Family 6 Model 158 Stepping 13, GenuineIntel;
MC_ID=unknown;
OS=Windows_NT;
OS_RELEASE=unknown;
FRU=Parasolid Version 32.1, build 255,  1- 1-2021;
APPL=SOLIDWORKS 2021-2021301;
SITE=;
USER=unknown;
FORMAT=text;
GUISE=transmit;
KEY=conector54para;
FILE=conector54para.x_t;
DATE=Fri Jun  3 22:08:06 2022;
**PART2;
SCH=SCH_3201255_32001;
USFLD_SIZE=0;
**PART3;
**END_OF_HEADER*****************************************************************
T51 : TRANSMIT FILE created by modeller version 320125523 SCH_3201255_32001_1300
6229 0 10 20 CCCCCCCI4 mesh1006 0 I8 polyline1008 0 CCCCCCCCCCA16 mesh_offset_da
ta206 0 Z1 7 2 3 0 0 0 0 0 0 0 1e3 1e-8 0 0 0 1 0 1 4 0 81 255 2 2 7 5 1 0 0 0 0
 0 0 70 11 CI9 list_type0 0 1 uI10 notransmit0 0 1 lCCCDCCDI12 finger_index0 0 1
 dI12 finger_block1012 0 CZ3 0 4 T1 0 0 1 20 1 6 6 11 255 4 5 0 1 7 8 1 9 0 0 0
 12 34 CCCCCCI4 mesh1006 0 I8 polyline1008 0 CCCCCCCDI5 owner1040 0 CCCCCCI13 bo
undary_mesh1006 0 I17 boundary_polyline1008 0 CCCA16 index_map_offset0 0 1 dA9 i
ndex_map82 0 A17 node_id_index_map82 0 A20 schema_embedding_map82 0 A5 child12 0
 A14 lowest_node_id0 0 1 dA16 mesh_offset_data206 0 Z7 177 10 11 0 0 0 0 0 0 1e3
 1e-8 4 12 0 1 0 1 1 13 14 15 0 0 0 16 17 0 0 0 0 0 0 0 0 100 255 8 6 4 0 0 1 0
 0 0 1 0 0 0 1 0 0 0 1 0 ?11 9 3 0 1 12 18 1 19 4 0 0 12 12 177 20 21 0 0 0 0 0
 0 1e3 1e-8 9 22 7 1 0 1 1 23 24 25 0 0 0 26 27 0 0 0 0 0 0 0 0 100 18 4 9 0 0 1
 0 0 0 1 0 0 0 1 0 0 0 1 0 ?11 19 1 0 1 22 28 1 0 9 0 0 12 22 191 29 30 0 0 0 0
 0 0 1e3 1e-8 19 31 12 1 0 1 1 32 33 34 0 0 0 35 36 0 0 0 0 0 0 0 0 100 28 2 19
 0 0 1 0 0 0 1 0 0 0 1 0 0 0 1 0 ?81 1 29 191 37 22 38 0 0 0 0 70 30 0 4 T22 0 0
 4 20 1 39 39 13 255 32 35 0 22 0 40 0 0 41 0 51 255 33 34 0 42 43 0 0 -0 0 .05
 0 0 -1 .027 -1 0 0 31 255 34 6 0 36 44 0 0 +0 0 .05 0 0 1 1 0 0 .027 19 8 CCCCC
CCA5 owner12 0 Z35 1 0 22 41 0 45 V0 16 255 36 5 0 ?46 0 47 34 0 0 22 17 255 46
 0 48 46 46 0 49 36 0 0 +16 47 61 0 ?50 36 51 44 0 0 22 17 50 0 52 50 50 0 53 47
 0 0 +16 51 86 0 ?54 47 55 56 0 0 22 31 44 83 0 47 56 34 0 +0 0 .05 0 0 1 1 0 0
 .025 31 56 124 0 51 57 44 0 +0 0 -.05 0 0 1 1 0 0 .027 31 57 126 0 55 0 56 0 +0
 0 -.05 0 0 1 1 0 0 .025 16 55 89 0 ?58 51 0 57 0 0 22 17 58 0 59 58 58 0 60 55
 0 0 +15 255 59 105 0 58 61 62 17 60 0 63 60 60 0 58 55 0 0 -15 63 115 0 60 64 0
 14 255 64 64 65 ?61 42 52 32 66 +0 0 61 42 45 81 1 65 187 67 64 68 0 0 69 70 14
 61 102 69 ?0 64 59 32 71 -0 0 0 64 45 14 42 31 72 ?64 40 73 32 33 -0 0 64 40 45
 15 52 66 0 50 64 63 51 66 79 0 64 71 43 0 -0 0 .05 0 0 -1 .025 -1 0 0 13 45 3 0
 0 0 0 0 0 35 40 14 40 54 74 ?42 0 48 32 43 +0 0 42 0 45 81 1 74 190 67 40 75 0
 72 0 76 15 48 7 0 46 40 77 50 255 43 10 0 40 66 33 0 +0 0 .05 0 0 1 1 0 0 15 77
 51 0 53 40 0 17 53 0 77 53 53 0 50 47 0 0 -80 255 1 67 78 79 9000 1 1 1 1 1 1 1
 1 0 FFFFTFTFFFFFFF1 81 1 75 173 80 40 0 74 0 81 82 81 1 72 189 67 42 81 0 69 74
 83 82 255 1 76 1761280113 81 1 81 174 80 42 0 72 75 68 84 81 1 69 188 67 61 85
 0 65 72 86 82 1 83 1758855281 81 1 85 176 80 61 0 69 68 0 87 82 1 86 1765671025
 80 1 80 0 88 8001 0 0 0 0 3 5 0 0 0 FFFFTFTFFFFFFF2 81 1 68 175 80 64 0 65 81 8
5 89 83 255 3 87 .792156862745098 .819607843137255 .933333333333333 83 3 89 .792
156862745098 .819607843137255 .933333333333333 79 255 15 88 SDL/TYSA_COLOUR83 3
 84 .792156862745098 .819607843137255 .933333333333333 83 3 82 .792156862745098
 .819607843137255 .933333333333333 79 14 79 SWEntUnchanged50 71 121 0 61 0 66 0
 +0 0 -.05 0 0 1 1 0 0 15 73 30 0 49 42 90 17 49 0 73 49 49 0 46 36 0 0 -15 90 1
00 0 54 42 0 17 54 0 90 54 54 0 91 51 0 0 +17 91 0 62 91 91 0 54 51 0 0 -15 62 1
06 0 91 61 0 82 1 70 1755316337 19 41 36 0 22 0 35 32 S0 74 4 CI16 index_map_off
set0 0 1 dCCZ20 39 4 0 0 74 38 85 29 0 0 0 0 0 0 0 0 0 0 0 0 0 0 0 0 81 2 38 149
 92 22 0 29 0 0 93 0 80 2 92 94 95 8004 0 0 0 0 3 5 0 0 0 FFTFFFFFFFFFFF2 3 83 1
 93 1 79 16 95 SDL/TYSA_DENSITY80 1 37 96 97 8017 0 0 0 0 0 0 0 0 0 TTTTTTTTTTTT
TF3 79 13 97 SDL/TYSA_NAME81 1 20 177 37 12 98 0 0 0 0 70 21 0 4 T12 0 0 4 20 1
 99 99 13 23 35 0 12 0 100 0 0 101 0 51 24 34 0 102 103 0 0 -0 0 -.075 0 0 1 .02
5 1 0 0 31 25 6 0 27 104 0 0 +0 0 -.075 0 0 -1 -1 0 0 .025 19 26 1 0 12 101 0 10
5 V0 16 27 5 0 ?106 0 107 25 0 0 12 17 106 0 108 106 106 0 109 27 0 0 +16 107 61
 0 ?110 27 111 104 0 0 12 17 110 0 112 110 110 0 113 107 0 0 +16 111 86 0 ?114 1
07 115 116 0 0 12 31 104 83 0 107 116 25 0 +0 0 -.075 0 0 -1 -1 0 0 .024 31 116
 124 0 111 117 104 0 +0 0 -.049 0 0 -1 -1 0 0 .025 31 117 126 0 115 0 116 0 +0 0
 -.049 0 0 -1 -1 0 0 .024 16 115 89 0 ?118 111 0 117 0 0 12 17 118 0 119 118 118
 0 120 115 0 0 +15 119 105 0 118 121 122 17 120 0 123 120 120 0 118 115 0 0 -15
 123 115 0 120 124 0 14 124 64 125 ?121 102 112 23 126 +0 0 121 102 105 81 1 125
 173 67 124 127 0 0 128 129 14 121 102 128 ?0 124 119 23 130 -0 0 0 124 105 14 1
02 31 131 ?124 100 132 23 24 -0 0 124 100 105 15 112 66 0 110 124 123 51 126 79
 0 124 130 103 0 -0 0 -.075 0 0 1 .024 1 0 0 13 105 3 0 0 0 0 0 0 26 100 14 100
 54 133 ?102 0 108 23 103 +0 0 102 0 105 81 1 133 176 67 100 134 0 131 0 135 15
 108 7 0 106 100 136 50 103 10 0 100 126 24 0 +0 0 -.075 0 0 -1 -1 0 0 15 136 51
 0 113 100 0 17 113 0 136 113 113 0 110 107 0 0 -81 1 134 159 80 100 0 133 0 137
 138 81 1 131 175 67 102 137 0 128 133 139 82 1 135 1790902387 81 1 137 160 80 1
02 0 131 134 127 140 81 1 128 174 67 121 141 0 125 131 142 82 1 139 1784938611 8
1 1 141 162 80 121 0 128 127 0 143 82 1 142 1791950963 81 1 127 161 80 124 0 125
 137 141 144 83 3 143 .792156862745098 .819607843137255 .933333333333333 83 3 14
4 .792156862745098 .819607843137255 .933333333333333 83 3 140 .792156862745098 .
819607843137255 .933333333333333 83 3 138 .792156862745098 .819607843137255 .933
333333333333 50 130 121 0 121 0 126 0 +0 0 -.049 0 0 -1 -1 0 0 15 132 30 0 109 1
02 145 17 109 0 132 109 109 0 106 27 0 0 -15 145 100 0 114 102 0 17 114 0 145 11
4 114 0 146 111 0 0 +17 146 0 122 146 146 0 114 111 0 0 -15 122 106 0 146 121 0
 82 1 129 1788477555 19 101 36 0 12 0 26 23 S0 74 20 99 4 0 0 133 98 141 20 0 0
 0 0 0 0 0 0 0 0 0 0 0 0 0 0 81 2 98 145 92 12 0 20 0 0 147 0 83 1 147 1 81 1 10
 177 37 7 148 0 0 0 0 70 11 0 4 T7 0 0 4 20 1 149 149 13 13 35 0 7 0 150 0 0 151
 0 51 14 34 0 152 153 0 0 -0 0 .075 0 0 -1 .025 -1 0 0 31 15 6 0 17 154 0 0 +0 0
 .075 0 0 1 1 0 0 .025 19 16 1 0 7 151 0 155 V0 16 17 5 0 ?156 0 157 15 0 0 7 17
 156 0 158 156 156 0 159 17 0 0 +16 157 61 0 ?160 17 161 154 0 0 7 17 160 0 162
 160 160 0 163 157 0 0 +16 161 86 0 ?164 157 165 166 0 0 7 31 154 83 0 157 166 1
5 0 +0 0 .075 0 0 1 1 0 0 .024 31 166 124 0 161 167 154 0 +0 0 .049 0 0 1 1 0 0
 .025 31 167 126 0 165 0 166 0 +0 0 .049 0 0 1 1 0 0 .024 16 165 89 0 ?168 161 0
 167 0 0 7 17 168 0 169 168 168 0 170 165 0 0 +15 169 105 0 168 171 172 17 170 0
 173 170 170 0 168 165 0 0 -15 173 115 0 170 174 0 14 174 64 175 ?171 152 162 13
 176 +0 0 171 152 155 81 1 175 173 67 174 177 0 0 178 179 14 171 102 178 ?0 174
 169 13 180 -0 0 0 174 155 14 152 31 181 ?174 150 182 13 14 -0 0 174 150 155 15
 162 66 0 160 174 173 51 176 79 0 174 180 153 0 -0 0 .075 0 0 -1 .024 -1 0 0 13
 155 3 0 0 0 0 0 0 16 150 14 150 54 183 ?152 0 158 13 153 +0 0 152 0 155 81 1 18
3 176 67 150 184 0 181 0 185 15 158 7 0 156 150 186 50 153 10 0 150 176 14 0 +0
 0 .075 0 0 1 1 0 0 15 186 51 0 163 150 0 17 163 0 186 163 163 0 160 157 0 0 -81
 1 184 159 80 150 0 183 0 187 188 81 1 181 175 67 152 187 0 178 183 189 82 1 185
 1820524661 81 1 187 160 80 152 0 181 184 177 190 81 1 178 174 67 171 191 0 175
 181 192 82 1 189 1814560885 81 1 191 162 80 171 0 178 177 0 193 82 1 192 182157
3237 81 1 177 161 80 174 0 175 187 191 194 83 3 193 .792156862745098 .8196078431
37255 .933333333333333 83 3 194 .792156862745098 .819607843137255 .9333333333333
33 83 3 190 .792156862745098 .819607843137255 .933333333333333 83 3 188 .7921568
62745098 .819607843137255 .933333333333333 50 180 121 0 171 0 176 0 +0 0 .049 0
 0 1 1 0 0 15 182 30 0 159 152 195 17 159 0 182 159 159 0 156 17 0 0 -15 195 100
 0 164 152 0 17 164 0 195 164 164 0 196 161 0 0 +17 196 0 172 196 196 0 164 161
 0 0 -15 172 106 0 196 171 0 82 1 179 1818099829 19 151 36 0 7 0 16 13 S0 74 20
 149 4 0 0 183 148 191 10 0 0 0 0 0 0 0 0 0 0 0 0 0 0 0 0 81 2 148 145 92 7 0 10
 0 0 197 0 83 1 197 1 74 20 6 1 0 0 2 0 0 0 0 0 0 0 0 0 0 0 0 0 0 0 0 0 0 0 80 2
 5 198 199 9000 0 0 0 0 3 5 0 0 0 TFFFFFFFFFFFFF9 1 79 18 199 MULTI_BODY_ID_2001
1 0 
