**ABCDEFGHIJKLMNOPQRSTUVWXYZabcdefghijklmnopqrstuvwxyz**************************
**PARASOLID !"#$%&'()*+,-./:;<=>?@[\]^_`{|}~0123456789**************************
**PART1;
MC=AMD64;
MC_MODEL=Intel64 Family 6 Model 158 Stepping 13, GenuineIntel;
MC_ID=unknown;
OS=Windows_NT;
OS_RELEASE=unknown;
FRU=Parasolid Version 32.1, build 255,  1- 1-2021;
APPL=SOLIDWORKS 2021-2021301;
SITE=;
USER=unknown;
FORMAT=text;
GUISE=transmit;
KEY=contcone54para;
FILE=contcone54para.x_t;
DATE=Fri Jun  3 22:08:38 2022;
**PART2;
SCH=SCH_3201255_32001;
USFLD_SIZE=0;
**PART3;
**END_OF_HEADER*****************************************************************
T51 : TRANSMIT FILE created by modeller version 320125523 SCH_3201255_32001_1300
6229 0 12 34 CCCCCCI4 mesh1006 0 I8 polyline1008 0 CCCCCCCDI5 owner1040 0 CCCCCC
I13 boundary_mesh1006 0 I17 boundary_polyline1008 0 CCCA16 index_map_offset0 0 1
 dA9 index_map82 0 A17 node_id_index_map82 0 A20 schema_embedding_map82 0 A5 chi
ld12 0 A14 lowest_node_id0 0 1 dA16 mesh_offset_data206 0 Z1 186 2 3 0 0 0 0 0 0
 1e3 1e-8 0 4 0 1 0 1 1 5 6 7 0 0 0 8 9 0 0 0 0 0 0 0 0 81 255 2 2 182 10 1 11 0
 0 0 0 12 70 11 CI9 list_type0 0 1 uI10 notransmit0 0 1 lCCCDCCDI12 finger_index
0 0 1 dI12 finger_block1012 0 CZ3 0 4 T1 0 0 9 20 1 13 13 13 255 5 35 0 1 0 14 0
 0 15 0 51 255 6 34 0 16 17 0 0 -0 0 .09 0 0 -1 .027 -1 0 0 31 255 7 6 0 9 18 0
 0 +0 0 .09 0 0 1 1 0 0 .027 19 8 CCCCCCCA5 owner12 0 Z8 1 0 1 15 0 19 V0 16 255
 9 5 0 ?20 0 21 7 0 0 1 17 255 20 0 22 20 20 0 23 9 0 0 +16 21 61 0 ?24 9 25 18
 0 0 1 17 24 0 26 24 24 0 27 21 0 0 +16 25 86 0 ?28 21 29 30 0 0 1 31 18 83 0 21
 30 7 0 +0 0 .09 0 0 1 1 0 0 .025 31 30 124 0 25 31 18 0 +0 0 -.09 0 0 1 1 0 0 .
027 31 31 126 0 29 0 30 0 +0 0 -.09 0 0 1 1 0 0 .025 16 29 89 0 ?32 25 0 31 0 0
 1 17 32 0 33 32 32 0 34 29 0 0 +15 255 33 105 0 32 35 36 17 34 0 37 34 34 0 32
 29 0 0 -15 37 115 0 34 38 0 14 255 38 64 39 ?35 16 26 5 40 +0 0 35 16 19 81 1 3
9 183 41 38 42 0 0 43 44 14 35 102 43 ?0 38 33 5 45 -0 0 0 38 19 14 16 31 46 ?38
 14 47 5 6 -0 0 38 14 19 15 26 66 0 24 38 37 51 40 79 0 38 45 17 0 -0 0 .09 0 0
 -1 .025 -1 0 0 13 19 3 0 0 0 0 0 0 8 14 14 14 54 48 ?16 0 22 5 17 +0 0 16 0 19
 81 1 48 186 41 14 49 0 46 0 50 15 22 7 0 20 14 51 50 255 17 10 0 14 40 6 0 +0 0
 .09 0 0 1 1 0 0 15 51 51 0 27 14 0 17 27 0 51 27 27 0 24 21 0 0 -80 255 1 41 52
 53 9000 1 1 1 1 1 1 1 1 0 FFFFTFTFFFFFFF1 81 1 49 169 54 14 0 48 0 55 56 81 1 4
6 185 41 16 55 0 43 48 57 82 255 1 50 -1677852560 81 1 55 170 54 16 0 46 49 42 5
8 81 1 43 184 41 35 59 0 39 46 60 82 1 57 -1683816336 81 1 59 172 54 35 0 43 42
 0 61 82 1 60 -1676803984 80 1 54 0 62 8001 0 0 0 0 3 5 0 0 0 FFFFTFTFFFFFFF2 81
 1 42 171 54 38 0 39 55 59 63 83 255 3 61 .792156862745098 .819607843137255 .933
333333333333 83 3 63 .792156862745098 .819607843137255 .933333333333333 79 255 1
5 62 SDL/TYSA_COLOUR83 3 58 .792156862745098 .819607843137255 .933333333333333 8
3 3 56 .792156862745098 .819607843137255 .933333333333333 79 14 53 SWEntUnchange
d50 45 121 0 35 0 40 0 +0 0 -.09 0 0 1 1 0 0 15 47 30 0 23 16 64 17 23 0 47 23 2
3 0 20 9 0 0 -15 64 100 0 28 16 0 17 28 0 64 28 28 0 65 25 0 0 +17 65 0 36 65 65
 0 28 25 0 0 -15 36 106 0 65 35 0 82 1 44 -1680277392 19 15 36 0 1 0 8 5 S0 74 4
 CI16 index_map_offset0 0 1 dCCZ20 13 9 0 0 66 67 48 68 69 70 11 59 2 0 0 0 0 0
 0 0 0 0 0 0 81 2 66 41 71 1 0 67 0 0 0 72 81 2 67 136 73 1 66 68 0 0 0 74 81 1
 68 141 75 1 67 69 0 0 76 81 2 69 149 77 1 68 70 0 0 78 0 81 2 70 163 79 1 69 11
 0 0 0 80 81 2 11 166 81 1 70 2 0 0 0 0 80 2 81 82 83 9000 0 0 0 0 3 5 0 0 0 FFT
FFFFFFFFFFF9 1 79 16 83 BODY_RECIPE_200180 2 79 84 85 9000 0 0 0 0 3 5 0 0 0 FFT
FFFFFFFFFFF9 1 82 1 80 1 79 24 85 BODY_IN_LIGHTWEIGHT_PERM80 2 77 86 87 8004 0 0
 0 0 3 5 0 0 0 FFTFFFFFFFFFFF2 3 83 1 78 1 79 16 87 SDL/TYSA_DENSITY80 1 75 88 8
9 9000 1 1 1 1 1 1 1 1 0 FFTFFFFFFFFFFF1 82 1 76 39807 79 10 89 BODY_MATCH80 2 7
3 90 91 9000 0 0 0 0 3 5 0 0 0 FFTFFFFFFFFFFF9 1 82 1 74 34 79 30 91 LAST_BODY_M
ODIFYING_FEATURE_ID80 2 71 92 93 9000 0 0 0 0 3 5 0 0 0 FFTFFFFFFFFFFF9 1 82 1 7
2 109 79 19 93 ENT_TIME_STAMP_200180 2 10 94 95 9000 0 0 0 0 3 5 0 0 0 FFTFFFFFF
FFFFF9 1 82 1 12 101 79 12 95 ATOM_ID_20011 0 
