**ABCDEFGHIJKLMNOPQRSTUVWXYZabcdefghijklmnopqrstuvwxyz**************************
**PARASOLID !"#$%&'()*+,-./:;<=>?@[\]^_`{|}~0123456789**************************
**PART1;
MC=AMD64;
MC_MODEL=Intel64 Family 6 Model 158 Stepping 13, GenuineIntel;
MC_ID=unknown;
OS=Windows_NT;
OS_RELEASE=unknown;
FRU=Parasolid Version 32.1, build 255,  1- 1-2021;
APPL=SOLIDWORKS 2021-2021301;
SITE=;
USER=unknown;
FORMAT=text;
GUISE=transmit;
KEY=unicaSup54mm;
FILE=unicaSup54mm.x_t;
DATE=Fri Jun  3 22:06:13 2022;
**PART2;
SCH=SCH_3201255_32001;
USFLD_SIZE=0;
**PART3;
**END_OF_HEADER*****************************************************************
T51 : TRANSMIT FILE created by modeller version 320125523 SCH_3201255_32001_1300
6229 0 10 20 CCCCCCCI4 mesh1006 0 I8 polyline1008 0 CCCCCCCCCCA16 mesh_offset_da
ta206 0 Z1 21 2 3 0 0 0 0 0 0 0 1e3 1e-8 0 0 0 1 0 1 4 0 81 255 1 2 21 5 1 0 0 0
 0 0 70 11 CI9 list_type0 0 1 uI10 notransmit0 0 1 lCCCDCCDI12 finger_index0 0 1
 dI12 finger_block1012 0 CZ3 0 4 T1 0 0 1 20 1 6 6 11 255 4 19 0 1 7 8 1 9 0 9 0
 12 34 CCCCCCI4 mesh1006 0 I8 polyline1008 0 CCCCCCCDI5 owner1040 0 CCCCCCI13 bo
undary_mesh1006 0 I17 boundary_polyline1008 0 CCCA16 index_map_offset0 0 1 dA9 i
ndex_map82 0 A17 node_id_index_map82 0 A20 schema_embedding_map82 0 A5 child12 0
 A14 lowest_node_id0 0 1 dA16 mesh_offset_data206 0 Z7 276 10 11 0 0 0 0 0 0 1e3
 1e-8 4 12 0 1 0 1 1 13 14 15 16 0 0 17 18 19 0 0 0 0 0 0 0 100 255 8 20 4 0 0 -
1 419917919325867e-30 353991458396529e-29 -134476534233289e-30 -.996774567028671
 .0802524923276829 3562196286349435e-30 .0802524923276829 .996774567028671 -.489
384280276979 .0320501519034095 .761668430009335 1 3 ?11 9 17 0 1 7 20 1 21 4 21
 4 100 20 18 9 0 0 -1 297227045872718e-30 387130573473062e-30 -4097351209756515e
-31 -.0802524923276829 -.996774567028671 -265200166581511e-30 -.996774567028671
 .0802524923276829 -.489384280277632 .0573347614500007 .733046960443941 1 3 ?11
 21 15 0 1 7 22 1 23 9 23 9 100 22 16 21 0 0 -3775479746615385e-30 1 39855536962
5084e-30 -.0802524923276829 942781965964203e-31 -.996774567028671 -.996774567028
671 -3795287251501065e-30 .0802524923276829 -.524384280276978 .0644772332671783
 .821759896909615 1 3 ?11 23 13 0 1 7 24 1 25 21 0 21 100 24 14 23 0 0 -1 -47845
4190897963e-30 -348021979981405e-29 -1976146561921435e-31 .996774567028671 -.080
2524923276828 3507391725408445e-30 -.0802524923276828 -.996774567028671 -.489384
280276976 .0859562310152855 .758331569990668 1 3 ?11 25 11 0 1 12 26 1 27 23 0 0
 12 12 180 28 29 0 0 0 0 0 0 1e3 1e-8 25 30 7 1 0 1 1 31 32 33 0 0 0 34 35 0 0 0
 0 0 0 0 0 100 26 12 25 0 0 -1322589695355666e-30 -3306299902033755e-30 -1 .9387
07588769408 -.3447144655896 -101795580050069e-30 -.3447144655896 -.9387075887694
08 355956460881548e-29 .425615719723022 .0590031914593858 .760000000000082 1 3 ?
11 27 9 0 1 30 36 1 37 25 0 0 12 30 171 38 39 0 0 0 0 0 0 1e3 1e-8 27 40 12 1 0
 1 1 41 42 43 0 0 0 44 45 0 0 0 0 0 0 0 0 100 36 10 27 0 0 1219044193948984e-44
 3491481338843135e-30 1 1 -3491481338843135e-30 0 3491481338843135e-30 1 -349148
1338843135e-30 .2856157197230215 .0590031914593476 .76 1 3 ?11 37 7 0 1 40 46 1
 47 27 0 0 12 40 171 48 49 0 0 0 0 0 0 1e3 1e-8 37 50 30 1 0 1 1 51 52 53 0 0 0
 54 55 0 0 0 0 0 0 0 0 100 46 8 37 0 0 1219044193948984e-44 3491481338843135e-30
 1 1 -3491481338843135e-30 0 3491481338843135e-30 1 -3491481338843135e-30 .28561
57197230215 .0590031914593476 .76 1 3 ?11 47 5 0 1 50 56 1 57 37 0 0 12 50 184 5
8 59 0 0 0 0 0 0 1e3 1e-8 47 60 40 1 0 1 1 61 62 63 0 0 0 64 65 0 0 0 0 0 0 0 0
 100 56 6 47 0 0 1219044193948984e-44 3491481338843135e-30 1 1 -3491481338843135
e-30 0 3491481338843135e-30 1 -3491481338843135e-30 .2856157197230215 .059003191
4593476 .76 1 3 ?11 57 3 0 1 60 66 1 67 47 0 0 12 60 125 68 69 70 71 0 0 0 0 1e3
 1e-8 57 72 50 1 0 1 1 73 74 75 76 0 0 77 78 79 0 0 0 0 0 0 0 100 66 4 57 0 0 -1
 1065962545333834e-29 -21688916434892e-28 -1638572046570965e-30 -.3447144655896
 -.938707588769408 -1075391963029538e-29 -.938707588769408 .3447144655896 .62315
7582990954 .0590031914594391 .760000000000654 1 3 ?11 67 1 0 1 72 80 1 0 57 0 0
 12 72 180 81 82 0 0 0 0 0 0 1e3 1e-8 67 83 60 1 0 1 1 84 85 86 0 0 0 87 88 0 0
 0 0 0 0 0 0 100 80 2 67 0 0 1219044193948984e-44 3491481338843135e-30 1 1 -3491
481338843135e-30 0 3491481338843135e-30 1 -3491481338843135e-30 -.14438428027697
86 .0590031914593476 .76 1 3 ?81 1 81 180 5 72 89 0 0 0 90 70 82 0 4 T72 0 0 4 2
0 1 91 91 13 255 84 35 0 72 0 92 0 0 93 0 51 255 85 34 0 94 95 0 0 -0 0 .38 0 0
 -1 .027 -1 0 0 31 255 86 6 0 88 96 0 0 +0 0 .38 0 0 1 1 0 0 .027 19 8 CCCCCCCA5
 owner12 0 Z87 1 0 72 93 0 97 V0 16 255 88 5 0 ?98 0 99 86 0 0 72 17 255 98 0 10
0 98 98 0 101 88 0 0 +16 99 61 0 ?102 88 103 96 0 0 72 17 102 0 104 102 102 0 10
5 99 0 0 +16 103 86 0 ?106 99 107 108 0 0 72 31 96 83 0 99 108 86 0 +0 0 .38 0 0
 1 1 0 0 .025 31 108 124 0 103 109 96 0 +0 0 -.38 0 0 1 1 0 0 .027 31 109 126 0
 107 0 108 0 +0 0 -.38 0 0 1 1 0 0 .025 16 107 89 0 ?110 103 0 109 0 0 72 17 110
 0 111 110 110 0 112 107 0 0 +15 255 111 105 0 110 113 114 17 112 0 115 112 112
 0 110 107 0 0 -15 115 115 0 112 116 0 14 255 116 64 117 ?113 94 104 84 118 +0 0
 113 94 97 81 1 117 178 119 116 120 0 121 122 123 14 113 102 122 ?0 116 111 84 1
24 -0 0 0 116 97 14 94 31 121 ?116 92 125 84 85 -0 0 116 92 97 15 104 66 0 102 1
16 115 51 118 79 0 116 124 95 0 -0 0 .38 0 0 -1 .025 -1 0 0 13 97 3 0 0 0 0 0 0
 87 92 14 92 54 126 ?94 0 100 84 95 +0 0 94 0 97 81 1 126 176 119 92 127 0 0 121
 128 15 100 7 0 98 92 129 50 255 95 10 0 92 118 85 0 +0 0 .38 0 0 1 1 0 0 15 129
 51 0 105 92 0 17 105 0 129 105 105 0 102 99 0 0 -80 255 1 119 0 130 8001 0 0 0
 0 3 5 0 0 0 FFFFTFTFFFFFFF2 81 1 127 174 131 92 0 126 132 0 133 81 1 121 177 11
9 94 132 0 126 117 134 83 255 3 128 .792156862745098 .819607843137255 .933333333
333333 81 1 132 172 131 94 0 121 135 127 136 83 3 134 .792156862745098 .81960784
3137255 .933333333333333 80 1 131 137 138 9000 1 1 1 1 1 1 1 1 0 FFFFTFTFFFFFFF1
 81 1 135 170 131 113 0 122 120 132 139 82 255 1 136 -961544078 81 1 122 179 119
 113 135 0 117 0 140 81 1 120 168 131 116 0 117 0 135 141 82 1 139 -954531726 82
 1 141 -958005134 83 3 140 .792156862745098 .819607843137255 .933333333333333 79
 255 14 138 SWEntUnchanged82 1 133 -955580302 79 15 130 SDL/TYSA_COLOUR50 124 12
1 0 113 0 118 0 +0 0 -.38 0 0 1 1 0 0 15 125 30 0 101 94 142 17 101 0 125 101 10
1 0 98 88 0 0 -15 142 100 0 106 94 0 17 106 0 142 106 106 0 143 103 0 0 +17 143
 0 114 143 143 0 106 103 0 0 -15 114 106 0 143 113 0 83 3 123 .792156862745098 .
819607843137255 .933333333333333 19 93 36 0 72 0 87 84 S0 74 4 CI16 index_map_of
fset0 0 1 dCCZ20 91 4 0 0 127 89 122 81 0 0 0 0 0 0 0 0 0 0 0 0 0 0 0 0 81 2 89
 149 144 72 0 81 0 0 145 0 80 2 144 146 147 8004 0 0 0 0 3 5 0 0 0 FFTFFFFFFFFFF
F2 3 83 1 145 1 79 16 147 SDL/TYSA_DENSITY80 1 5 148 149 8017 0 0 0 0 0 0 0 0 0
 TTTTTTTTTTTTTF3 84 255 14 90 corposupmain5479 13 149 SDL/TYSA_NAME81 1 68 125 5
 60 150 0 0 0 151 70 69 0 4 T60 0 0 4 20 1 152 152 68 255 70 18 0 60 153 0 154 +
71 -58492273524724e-27 -258408745790195e-28 0 1 0 0 -731142577037325e-28 -323027
195270331e-28 0 ?.0789347498618511 ?0 1 0 ?134 255 71 7 0 60 0 0 155 +156 157 13
 73 3 0 60 0 158 0 0 159 0 52 255 74 84 0 158 160 0 0 +.1074999999998356 -258408
745790195e-28 0 -1 0 0 .0259988750000362 .999123349124025 .0418632683290644 0 0
 1 31 75 81 0 161 162 0 0 +.1074999999998356 -258408745790195e-28 0 1 0 0 0 0 -1
 .0259988750000362 29 255 76 83 0 163 164 0 -731142577037325e-28 -32302719527033
1e-28 0 19 77 1 0 60 159 0 165 V0 16 78 15 0 ?166 0 161 167 0 0 60 18 255 79 56
 0 168 0 163 164 ?60 17 168 0 169 168 168 79 0 0 0 0 ?18 163 79 0 170 79 0 76 ?6
0 29 164 58 0 79 0 76 .002492949337692525 -258446692866232e-28 0 17 170 0 171 17
0 170 163 0 0 0 0 ?15 171 76 0 170 172 0 14 172 72 173 ?0 174 175 73 160 -0 0 0
 174 165 81 1 173 124 119 172 176 0 177 0 178 14 174 17 177 ?172 158 169 73 179
 +0 0 172 158 165 15 175 75 0 180 172 171 68 160 80 0 172 181 74 0 +162 -5849227
3524724e-27 -258408745790195e-28 0 1 0 0 -731142577037325e-28 -323027195270331e-
28 0 ?.0789347498618511 ?0 1 0 0 13 165 65 0 0 0 0 0 0 77 158 14 158 64 182 ?174
 0 183 73 74 +0 0 174 0 165 81 1 182 122 119 158 184 0 0 177 185 15 183 63 0 186
 158 187 17 186 0 183 186 186 0 166 78 0 0 -15 187 71 0 188 158 0 17 188 0 187 1
88 188 0 180 161 0 0 +17 180 0 175 180 180 0 188 161 0 0 -16 161 77 0 ?188 78 0
 75 0 0 60 17 166 0 189 166 166 0 186 78 0 0 +15 189 24 0 166 174 0 81 1 184 120
 131 158 0 182 190 0 191 81 1 177 123 119 174 190 0 182 173 192 83 3 185 .792156
862745098 .819607843137255 .933333333333333 81 1 190 118 131 174 0 177 176 184 1
93 83 3 192 .792156862745098 .819607843137255 .933333333333333 81 1 176 116 131
 172 0 173 0 190 194 82 1 193 -1993801623 82 1 194 -1991638935 82 1 191 -1987641
239 68 181 42 0 60 179 160 195 +196 -58492273524724e-27 -258408745790195e-28 0 1
 0 0 ????0 1 0 ?134 162 82 0 60 196 75 197 +198 199 134 196 43 0 60 167 162 200
 +201 202 141 255 197 160 197 197 162 136 255 198 2 3 3 2 5 FFF1 203 204 205 135
 255 199 2 0 45 255 9 203 -731142577037325e-28 -323027195270331e-28 0 .053749999
9998813 .02374674999997095 0 .1074999999998356 .02599887500001035 0 127 255 2 20
4 3 3 128 255 2 205 .0789347498618511 .916266795440447 31 167 55 0 78 0 196 0 +.
1075418632681648 -258408745790195e-28 0 1 0 0 0 1 0 .02499975165091215 141 200 1
81 200 200 196 136 201 2 3 3 2 5 FFF1 206 207 208 135 202 2 0 45 9 206 .00209482
1482110615 .000917329935498853 0 .0547974107409732 .0237906365100235 0 .10749999
99998356 .02599887500001035 0 127 4 207 3 3 0 0 128 4 208 .0952515978320872 .916
266795440447 ??60 255 179 44 0 174 0 181 0 +VF181 .001 3903127820947815e-33 141
 195 179 195 195 181 15 169 57 0 168 174 189 83 3 178 .792156862745098 .81960784
3137255 .933333333333333 19 159 68 0 60 0 77 73 S0 141 155 70 155 155 71 136 156
 2 3 3 2 5 FFF1 209 210 211 135 157 2 0 45 9 209 -731142577037325e-28 -323027195
270331e-28 0 .0537499999998813 .02374674999997095 0 .1074999999998356 .025998875
00001035 0 127 2 210 3 3 128 2 211 .0789347498618511 .916266795440447 60 153 41
 0 60 0 70 0 +UF70 .001 ?141 154 153 154 154 70 74 20 152 4 0 0 184 150 173 68 0
 0 0 0 0 0 0 0 0 0 0 0 0 0 0 0 81 2 150 102 144 60 0 68 0 0 212 0 83 1 212 1 84
 9 151 conesup5481 1 58 184 5 50 213 0 0 0 214 70 59 0 4 T50 0 0 4 20 1 215 215
 13 61 35 0 50 0 216 0 0 217 0 51 62 34 0 218 219 0 0 -0 0 .05 0 0 -1 .027 -1 0
 0 31 63 6 0 65 220 0 0 +0 0 .05 0 0 1 1 0 0 .027 19 64 1 0 50 217 0 221 V0 16 6
5 5 0 ?222 0 223 63 0 0 50 17 222 0 224 222 222 0 225 65 0 0 +16 223 61 0 ?226 6
5 227 220 0 0 50 17 226 0 228 226 226 0 229 223 0 0 +16 227 86 0 ?230 223 231 23
2 0 0 50 31 220 83 0 223 232 63 0 +0 0 .05 0 0 1 1 0 0 .025 31 232 124 0 227 233
 220 0 +0 0 -.05 0 0 1 1 0 0 .027 31 233 126 0 231 0 232 0 +0 0 -.05 0 0 1 1 0 0
 .025 16 231 89 0 ?234 227 0 233 0 0 50 17 234 0 235 234 234 0 236 231 0 0 +15 2
35 105 0 234 237 238 17 236 0 239 236 236 0 234 231 0 0 -15 239 115 0 236 240 0
 14 240 64 241 ?237 218 228 61 242 +0 0 237 218 221 81 1 241 182 119 240 243 0 2
44 245 246 14 237 102 245 ?0 240 235 61 247 -0 0 0 240 221 14 218 31 244 ?240 21
6 248 61 62 -0 0 240 216 221 15 228 66 0 226 240 239 51 242 79 0 240 247 219 0 -
0 0 .05 0 0 -1 .025 -1 0 0 13 221 3 0 0 0 0 0 0 64 216 14 216 54 249 ?218 0 224
 61 219 +0 0 218 0 221 81 1 249 180 119 216 250 0 0 244 251 15 224 7 0 222 216 2
52 50 219 10 0 216 242 62 0 +0 0 .05 0 0 1 1 0 0 15 252 51 0 229 216 0 17 229 0
 252 229 229 0 226 223 0 0 -81 1 250 178 131 216 0 249 253 0 254 81 1 244 181 11
9 218 253 0 249 241 255 83 3 251 .792156862745098 .819607843137255 .933333333333
333 81 1 253 176 131 218 0 244 256 250 257 83 3 255 .792156862745098 .8196078431
37255 .933333333333333 81 1 256 174 131 237 0 245 243 253 258 82 1 257 175885528
1 81 1 245 183 119 237 256 0 241 0 259 81 1 243 172 131 240 0 241 0 256 260 82 1
 258 1765671025 82 1 260 1755316337 83 3 259 .792156862745098 .819607843137255 .
933333333333333 82 1 254 1761280113 50 247 121 0 237 0 242 0 +0 0 -.05 0 0 1 1 0
 0 15 248 30 0 225 218 261 17 225 0 248 225 225 0 222 65 0 0 -15 261 100 0 230 2
18 0 17 230 0 261 230 230 0 262 227 0 0 +17 262 0 238 262 262 0 230 227 0 0 -15
 238 106 0 262 237 0 83 3 246 .792156862745098 .819607843137255 .933333333333333
 19 217 36 0 50 0 64 61 S0 74 20 215 4 0 0 250 213 245 58 0 0 0 0 0 0 0 0 0 0 0
 0 0 0 0 0 81 2 213 149 144 50 0 58 0 0 263 0 83 1 263 1 84 10 214 conector5481
 1 48 171 5 40 264 0 0 0 265 70 49 0 4 T40 0 0 4 20 1 266 266 13 51 35 0 40 0 26
7 0 0 268 0 51 52 34 0 269 270 0 0 -0 0 -.075 0 0 1 .025 1 0 0 31 53 6 0 55 271
 0 0 +0 0 -.075 0 0 -1 -1 0 0 .025 19 54 1 0 40 268 0 272 V0 16 55 5 0 ?273 0 27
4 53 0 0 40 17 273 0 275 273 273 0 276 55 0 0 +16 274 61 0 ?277 55 278 271 0 0 4
0 17 277 0 279 277 277 0 280 274 0 0 +16 278 86 0 ?281 274 282 283 0 0 40 31 271
 83 0 274 283 53 0 +0 0 -.075 0 0 -1 -1 0 0 .024 31 283 124 0 278 284 271 0 +0 0
 -.049 0 0 -1 -1 0 0 .025 31 284 126 0 282 0 283 0 +0 0 -.049 0 0 -1 -1 0 0 .024
 16 282 89 0 ?285 278 0 284 0 0 40 17 285 0 286 285 285 0 287 282 0 0 +15 286 10
5 0 285 288 289 17 287 0 290 287 287 0 285 282 0 0 -15 290 115 0 287 291 0 14 29
1 64 292 ?288 269 279 51 293 +0 0 288 269 272 81 1 292 169 119 291 294 0 295 296
 297 14 288 102 296 ?0 291 286 51 298 -0 0 0 291 272 14 269 31 295 ?291 267 299
 51 52 -0 0 291 267 272 15 279 66 0 277 291 290 51 293 79 0 291 298 270 0 -0 0 -
.075 0 0 1 .024 1 0 0 13 272 3 0 0 0 0 0 0 54 267 14 267 54 300 ?269 0 275 51 27
0 +0 0 269 0 272 81 1 300 167 119 267 301 0 0 295 302 15 275 7 0 273 267 303 50
 270 10 0 267 293 52 0 +0 0 -.075 0 0 -1 -1 0 0 15 303 51 0 280 267 0 17 280 0 3
03 280 280 0 277 274 0 0 -81 1 301 165 131 267 0 300 304 0 305 81 1 295 168 119
 269 304 0 300 292 306 83 3 302 .792156862745098 .819607843137255 .9333333333333
33 81 1 304 163 131 269 0 295 307 301 308 83 3 306 .792156862745098 .81960784313
7255 .933333333333333 81 1 307 161 131 288 0 296 294 304 309 82 1 308 1784938611
 81 1 296 170 119 288 307 0 292 0 310 81 1 294 159 131 291 0 292 0 307 311 82 1
 309 1791950963 82 1 311 1788477555 83 3 310 .792156862745098 .819607843137255 .
933333333333333 82 1 305 1790902387 50 298 121 0 288 0 293 0 +0 0 -.049 0 0 -1 -
1 0 0 15 299 30 0 276 269 312 17 276 0 299 276 276 0 273 55 0 0 -15 312 100 0 28
1 269 0 17 281 0 312 281 281 0 313 278 0 0 +17 313 0 289 313 313 0 281 278 0 0 -
15 289 106 0 313 288 0 83 3 297 .792156862745098 .819607843137255 .9333333333333
33 19 268 36 0 40 0 54 51 S0 74 20 266 4 0 0 301 264 296 48 0 0 0 0 0 0 0 0 0 0
 0 0 0 0 0 0 81 2 264 145 144 40 0 48 0 0 314 0 83 1 314 1 84 10 265 conector548
1 1 38 171 5 30 315 0 0 0 316 70 39 0 4 T30 0 0 4 20 1 317 317 13 41 35 0 30 0 3
18 0 0 319 0 51 42 34 0 320 321 0 0 -0 0 .075 0 0 -1 .025 -1 0 0 31 43 6 0 45 32
2 0 0 +0 0 .075 0 0 1 1 0 0 .025 19 44 1 0 30 319 0 323 V0 16 45 5 0 ?324 0 325
 43 0 0 30 17 324 0 326 324 324 0 327 45 0 0 +16 325 61 0 ?328 45 329 322 0 0 30
 17 328 0 330 328 328 0 331 325 0 0 +16 329 86 0 ?332 325 333 334 0 0 30 31 322
 83 0 325 334 43 0 +0 0 .075 0 0 1 1 0 0 .024 31 334 124 0 329 335 322 0 +0 0 .0
49 0 0 1 1 0 0 .025 31 335 126 0 333 0 334 0 +0 0 .049 0 0 1 1 0 0 .024 16 333 8
9 0 ?336 329 0 335 0 0 30 17 336 0 337 336 336 0 338 333 0 0 +15 337 105 0 336 3
39 340 17 338 0 341 338 338 0 336 333 0 0 -15 341 115 0 338 342 0 14 342 64 343
 ?339 320 330 41 344 +0 0 339 320 323 81 1 343 169 119 342 345 0 346 347 348 14
 339 102 347 ?0 342 337 41 349 -0 0 0 342 323 14 320 31 346 ?342 318 350 41 42 -
0 0 342 318 323 15 330 66 0 328 342 341 51 344 79 0 342 349 321 0 -0 0 .075 0 0
 -1 .024 -1 0 0 13 323 3 0 0 0 0 0 0 44 318 14 318 54 351 ?320 0 326 41 321 +0 0
 320 0 323 81 1 351 167 119 318 352 0 0 346 353 15 326 7 0 324 318 354 50 321 10
 0 318 344 42 0 +0 0 .075 0 0 1 1 0 0 15 354 51 0 331 318 0 17 331 0 354 331 331
 0 328 325 0 0 -81 1 352 165 131 318 0 351 355 0 356 81 1 346 168 119 320 355 0
 351 343 357 83 3 353 .792156862745098 .819607843137255 .933333333333333 81 1 35
5 163 131 320 0 346 358 352 359 83 3 357 .792156862745098 .819607843137255 .9333
33333333333 81 1 358 161 131 339 0 347 345 355 360 82 1 359 1814560885 81 1 347
 170 119 339 358 0 343 0 361 81 1 345 159 131 342 0 343 0 358 362 82 1 360 18215
73237 82 1 362 1818099829 83 3 361 .792156862745098 .819607843137255 .9333333333
33333 82 1 356 1820524661 50 349 121 0 339 0 344 0 +0 0 .049 0 0 1 1 0 0 15 350
 30 0 327 320 363 17 327 0 350 327 327 0 324 45 0 0 -15 363 100 0 332 320 0 17 3
32 0 363 332 332 0 364 329 0 0 +17 364 0 340 364 364 0 332 329 0 0 -15 340 106 0
 364 339 0 83 3 348 .792156862745098 .819607843137255 .933333333333333 19 319 36
 0 30 0 44 41 S0 74 20 317 4 0 0 352 315 347 38 0 0 0 0 0 0 0 0 0 0 0 0 0 0 0 0
 81 2 315 145 144 30 0 38 0 0 365 0 83 1 365 1 84 10 316 conector5481 1 28 180 5
 12 366 0 0 0 367 70 29 0 4 T12 0 0 4 20 1 368 368 13 31 35 0 12 0 369 0 0 370 0
 51 32 34 0 371 372 0 0 -0 0 .09 0 0 -1 .027 -1 0 0 31 33 6 0 35 373 0 0 +0 0 .0
9 0 0 1 1 0 0 .027 19 34 1 0 12 370 0 374 V0 16 35 5 0 ?375 0 376 33 0 0 12 17 3
75 0 377 375 375 0 378 35 0 0 +16 376 61 0 ?379 35 380 373 0 0 12 17 379 0 381 3
79 379 0 382 376 0 0 +16 380 86 0 ?383 376 384 385 0 0 12 31 373 83 0 376 385 33
 0 +0 0 .09 0 0 1 1 0 0 .025 31 385 124 0 380 386 373 0 +0 0 -.09 0 0 1 1 0 0 .0
27 31 386 126 0 384 0 385 0 +0 0 -.09 0 0 1 1 0 0 .025 16 384 89 0 ?387 380 0 38
6 0 0 12 17 387 0 388 387 387 0 389 384 0 0 +15 388 105 0 387 390 391 17 389 0 3
92 389 389 0 387 384 0 0 -15 392 115 0 389 393 0 14 393 64 394 ?390 371 381 31 3
95 +0 0 390 371 374 81 1 394 178 119 393 396 0 397 398 399 14 390 102 398 ?0 393
 388 31 400 -0 0 0 393 374 14 371 31 397 ?393 369 401 31 32 -0 0 393 369 374 15
 381 66 0 379 393 392 51 395 79 0 393 400 372 0 -0 0 .09 0 0 -1 .025 -1 0 0 13 3
74 3 0 0 0 0 0 0 34 369 14 369 54 402 ?371 0 377 31 372 +0 0 371 0 374 81 1 402
 176 119 369 403 0 0 397 404 15 377 7 0 375 369 405 50 372 10 0 369 395 32 0 +0
 0 .09 0 0 1 1 0 0 15 405 51 0 382 369 0 17 382 0 405 382 382 0 379 376 0 0 -81
 1 403 174 131 369 0 402 406 0 407 81 1 397 177 119 371 406 0 402 394 408 83 3 4
04 .792156862745098 .819607843137255 .933333333333333 81 1 406 172 131 371 0 397
 409 403 410 83 3 408 .792156862745098 .819607843137255 .933333333333333 81 1 40
9 170 131 390 0 398 396 406 411 82 1 410 -1683816336 81 1 398 179 119 390 409 0
 394 0 412 81 1 396 168 131 393 0 394 0 409 413 82 1 411 -1676803984 82 1 413 -1
680277392 83 3 412 .792156862745098 .819607843137255 .933333333333333 82 1 407 -
1677852560 50 400 121 0 390 0 395 0 +0 0 -.09 0 0 1 1 0 0 15 401 30 0 378 371 41
4 17 378 0 401 378 378 0 375 35 0 0 -15 414 100 0 383 371 0 17 383 0 414 383 383
 0 415 380 0 0 +17 415 0 391 415 415 0 383 380 0 0 -15 391 106 0 415 390 0 83 3
 399 .792156862745098 .819607843137255 .933333333333333 19 370 36 0 12 0 34 31 S
0 74 20 368 4 0 0 403 366 398 28 0 0 0 0 0 0 0 0 0 0 0 0 0 0 0 0 81 2 366 149 14
4 12 0 28 0 0 416 0 83 1 416 1 84 10 367 contcone5481 1 10 276 5 7 417 0 0 0 418
 70 11 0 4 T7 0 0 4 20 1 419 419 13 13 3 0 7 0 420 0 0 421 0 50 14 198 0 422 423
 0 424 +.035 0 0 0 0 1 -1982541115402065e-31 1 0 137 255 15 206 0 7 425 0 426 +1
4 427 0 ?29 16 106 0 428 429 0 .035 0 0 19 17 5 0 7 421 0 430 V0 16 18 117 0 1e-
6 431 0 432 0 0 0 7 18 19 15 0 433 0 434 435 1e-6 7 17 433 0 436 437 438 19 439
 432 440 441 +18 434 13 0 431 19 442 443 1e-6 7 29 435 64 0 19 444 443 -.035 -42
86263797015735e-33 .001 29 444 63 0 445 0 435 .035 0 .001 29 443 65 0 434 435 44
6 -.01045584118581576 .04995 .001 29 446 66 0 442 443 447 .035 .07 .001 18 442 1
1 0 448 434 445 446 1e-6 7 29 447 109 0 449 446 450 .035 .07 0 18 449 99 0 451 4
52 428 447 1e-6 7 29 450 108 0 452 447 429 -.01045584118581576 .04995 0 18 452 9
8 0 453 454 449 450 1e-6 7 29 429 107 0 454 450 16 -.035 -4286263797015735e-33 0
 18 454 97 0 439 445 452 429 1e-6 7 17 439 0 455 456 457 454 433 432 458 459 -18
 445 10 0 460 442 454 444 1e-6 7 17 460 0 455 457 456 445 461 462 463 464 +15 45
5 115 0 439 465 0 17 457 0 455 439 460 19 464 466 467 0 -17 456 0 455 460 439 42
8 459 468 469 470 +17 461 0 471 472 473 428 460 462 474 456 -16 462 111 0 1e-6 4
60 432 475 0 0 0 7 133 255 463 171 0 460 476 477 0 +477 .035 0 0 .035 0 .001 0 1
 17 464 0 478 479 441 445 457 466 480 473 +15 478 7 0 479 481 0 17 479 0 478 482
 464 442 473 483 484 0 +17 441 0 478 464 482 19 437 485 486 457 +16 466 16 0 5e-
7 464 485 487 0 0 0 7 133 480 137 0 464 488 489 0 +490 -.035 -4286263797015735e-
33 .001 .035 0 .001 1 0 17 473 0 471 461 448 445 479 483 491 0 -15 471 112 0 461
 492 0 17 448 0 471 473 472 442 451 475 493 494 +16 483 6 0 5e-7 479 475 495 0 0
 0 7 133 491 133 0 473 496 497 0 +497 .035 .07 .001 .035 0 .001 0 1 137 496 124
 0 7 490 491 498 +499 500 0 ?137 497 134 0 7 491 501 502 +503 504 0 ?133 501 135
 0 472 497 488 0 +488 .035 0 0 .035 .07 0 0 1 141 502 491 502 502 497 50 503 132
 0 492 499 505 506 +.035 0 .001 1 1982541115402065e-31 0 0 1 0 134 504 0 0 0 0 0
 0 +507 508 136 507 1 2 2 2 5 FFF1 509 510 511 135 508 1 0 45 4 509 .07 0 0 0 12
7 2 510 2 2 128 2 511 0 1 14 492 113 512 ?513 465 471 13 503 +0 0 513 465 430 60
 499 62 0 481 514 503 515 +VF514 .001 ?50 505 146 0 465 503 516 517 -.035 0 .001
 -612323399573677e-31 1 0 1 612323399573677e-31 0 141 506 497 518 519 503 141 51
8 520 521 506 503 141 519 488 506 521 503 137 488 136 0 7 501 480 522 +503 523 0
 ?141 521 524 519 518 503 137 524 174 0 7 474 440 525 +503 526 0 ?133 474 173 0
 461 477 524 0 +524 .035 0 .001 .035 0 0 0 1 133 440 175 0 433 524 527 0 +527 -.
035 -4286263797015735e-33 0 -.035 -4286263797015735e-33 .001 0 1 141 525 474 525
 525 524 134 526 0 0 0 0 0 0 +528 529 136 528 1 2 2 2 5 FFF1 530 531 532 135 529
 1 0 45 4 530 0 0 0 -.001 127 2 531 2 2 128 2 532 0 1 137 527 176 0 7 440 458 53
3 +516 534 0 ?133 458 177 0 439 527 535 0 +535 -.035 -4286263797015735e-33 .001
 -.035 -4286263797015735e-33 0 0 1 141 533 440 533 533 527 50 516 156 0 420 505
 423 536 --.035 -4286263797015735e-33 .001 .897502294179074 -.441009786675193 0
 -.441009786675193 -.897502294179074 0 134 534 0 0 0 0 0 0 +537 538 136 537 1 2
 2 2 5 FFF1 539 540 541 135 538 1 0 45 4 539 0 .001 0 0 127 2 540 2 2 128 2 541
 0 1 14 420 119 542 ?465 0 436 13 516 +0 0 465 0 430 50 423 166 0 513 516 14 543
 +.035 .07 .001 -.403572008266902 .914947886025985 0 -.914947886025986 -.4035720
08266902 0 141 536 544 545 546 516 137 544 158 0 7 547 548 549 +516 550 0 ?141 5
45 551 552 536 516 141 546 553 536 552 516 137 553 160 0 7 548 554 555 +516 556
 0 ?141 552 527 546 545 516 133 548 159 0 438 544 553 0 +553 -.01045584118581576
 .04995 0 -.035 -4286263797015735e-33 0 0 1 133 554 161 0 482 553 557 0 +496 .03
5 .07 .001 -.01045584118581576 .04995 .001 0 1 141 555 548 555 555 553 134 556 0
 0 0 0 0 0 +558 559 136 558 1 2 2 2 5 FFF1 560 561 562 135 559 1 0 45 4 560 -.05
56544538370102 .001 0 .001 127 2 561 2 2 128 2 562 0 1 17 482 0 478 441 479 434
 494 495 554 437 +133 557 167 0 494 554 563 0 +563 -.01045584118581576 .04995 .0
01 .035 .07 .001 0 1 17 494 0 564 451 431 442 482 495 557 479 -137 563 168 0 7 5
57 565 566 +423 567 0 ?133 565 169 0 568 563 476 0 +476 .035 .07 0 -.01045584118
581576 .04995 0 0 1 141 566 557 566 566 563 134 567 0 0 0 0 0 0 +569 570 136 569
 1 2 2 2 5 FFF1 571 572 573 135 570 1 0 45 4 571 .0496813445662464 -216840434497
101e-33 0 0 127 2 572 2 2 128 2 573 0 1 17 568 0 564 431 451 452 574 575 565 0 +
137 476 170 0 7 565 463 576 +423 577 0 ?141 576 565 576 576 476 134 577 0 0 0 0
 0 0 +578 579 136 578 1 2 2 2 5 FFF1 580 581 582 135 579 1 0 45 4 580 0 -.001 .0
496813445662464 -.001 127 2 581 2 2 128 2 582 0 1 15 564 83 0 568 513 0 17 431 0
 564 494 568 434 453 18 583 482 +17 451 0 564 568 494 449 448 475 584 574 -17 57
4 0 585 470 586 449 568 575 425 472 -16 575 90 0 5e-7 568 487 587 0 0 0 7 16 487
 88 0 5e-7 472 466 575 0 0 0 7 16 587 92 0 5e-7 438 575 468 0 0 0 7 17 438 0 436
 433 453 454 586 587 548 0 +16 468 94 0 5e-7 456 587 0 0 0 0 7 15 436 118 0 453
 420 0 17 453 0 436 438 437 452 431 18 588 586 -17 586 0 585 574 459 452 438 587
 589 568 -15 585 87 0 470 422 0 17 459 0 585 586 470 454 456 468 590 438 -133 58
9 203 0 586 591 592 0 +592 -.035 -4286263797015735e-33 0 -.01045584118581576 .04
995 0 0 1 137 591 202 0 7 590 589 593 +14 594 0 ?137 592 204 0 7 589 425 595 +14
 596 0 ?133 425 205 0 574 592 15 0 +15 -.01045584118581576 .04995 0 .035 .07 0 0
 1 141 595 589 595 595 592 134 596 0 0 0 0 0 0 +597 598 136 597 1 2 2 2 5 FFF1 5
99 600 601 135 598 2 0 45 4 599 959152401079872e-32 .07 .04995 .0454558411858158
 127 2 600 2 2 128 2 601 0 1 133 590 201 0 459 602 591 0 +591 .035 0 0 -.035 -42
86263797015735e-33 0 0 1 141 593 590 593 593 591 134 594 0 0 0 0 0 0 +603 604 13
6 603 1 2 2 2 5 FFF1 605 606 607 135 604 2 0 45 4 605 0 0 959152401079872e-32 .0
7 127 2 606 2 2 128 2 607 0 1 137 602 200 0 7 608 590 609 +14 610 0 ?133 608 199
 0 470 611 602 0 +602 .035 .07 0 .035 0 0 0 1 141 609 608 609 609 602 134 610 0
 0 0 0 0 0 +612 613 136 612 1 2 2 2 5 FFF1 614 615 616 135 613 2 0 45 4 614 .07
 -1387778780781446e-32 0 0 127 2 615 2 2 128 2 616 0 1 17 470 0 585 459 574 428
 472 487 608 0 -137 611 186 0 7 584 608 617 +423 618 0 ?133 584 185 0 451 520 61
1 0 +611 .035 .07 .001 .035 .07 0 0 1 141 617 584 617 617 611 134 618 0 0 0 0 0
 0 +619 620 136 619 1 2 2 2 5 FFF1 621 622 623 135 620 1 0 45 4 621 0 0 0 -.001
 127 2 622 2 2 128 2 623 0 1 137 520 184 0 7 493 584 624 +503 625 0 ?133 493 183
 0 448 551 520 0 +520 .035 .07 0 .035 .07 .001 0 1 141 624 493 624 624 520 134 6
25 0 0 0 0 0 0 +626 627 136 626 1 2 2 2 5 FFF1 628 629 630 135 627 1 0 45 4 628
 .07 -.001 .07 0 127 2 629 2 2 128 2 630 0 1 137 551 182 0 7 588 493 631 +516 63
2 0 ?133 588 181 0 453 633 551 0 +551 -.01045584118581576 .04995 .001 -.01045584
118581576 .04995 0 0 1 141 631 588 631 631 551 134 632 0 0 0 0 0 0 +634 635 136
 634 1 2 2 2 5 FFF1 636 637 638 135 635 1 0 45 4 636 -.0556544538370102 21684043
4497101e-33 -.0556544538370102 .001 127 2 637 2 2 128 2 638 0 1 137 633 180 0 7
 583 588 639 +423 640 0 ?133 583 179 0 431 535 633 0 +633 -.01045584118581576 .0
4995 0 -.01045584118581576 .04995 .001 0 1 141 639 583 639 639 633 134 640 0 0 0
 0 0 0 +641 642 136 641 1 2 2 2 5 FFF1 643 644 645 135 642 1 0 45 4 643 .0496813
445662464 -.001 .0496813445662464 -216840434497101e-33 127 2 644 2 2 128 2 645 0
 1 137 535 178 0 7 458 583 646 +505 647 0 ?141 646 458 646 646 535 134 647 0 0 0
 0 0 0 +648 649 136 648 1 2 2 2 5 FFF1 650 651 652 135 649 1 0 45 4 650 -.07 0 -
.07 .001 127 2 651 2 2 128 2 652 0 1 18 428 100 0 461 449 0 16 1e-6 7 17 472 0 4
71 448 461 449 470 487 501 0 +14 422 84 653 ?0 481 585 13 14 -0 0 0 481 430 81 1
 653 275 119 422 654 0 655 0 656 14 481 2 655 ?422 513 478 13 499 +0 0 422 513 4
30 13 430 77 0 0 0 0 0 0 17 420 81 1 655 274 119 481 657 0 658 653 659 14 513 76
 658 ?481 492 564 13 423 +0 0 481 492 430 81 1 658 273 119 513 660 0 512 655 661
 81 1 660 266 131 513 0 658 657 662 663 81 1 512 272 119 492 664 0 665 658 666 8
3 3 661 .792156862745098 .819607843137255 .933333333333333 81 1 664 258 131 492
 0 512 0 667 668 81 1 665 271 119 465 662 0 542 512 669 83 3 666 .79215686274509
8 .819607843137255 .933333333333333 14 465 116 665 ?492 420 455 13 505 +0 0 492
 420 430 81 1 662 268 131 465 0 665 660 0 670 81 1 542 270 119 420 667 0 0 665 6
71 83 3 669 .792156862745098 .819607843137255 .933333333333333 81 1 667 260 131
 420 0 542 664 654 672 83 3 671 .792156862745098 .819607843137255 .9333333333333
33 81 1 654 262 131 422 0 653 667 657 673 82 1 672 -1957429140 81 1 657 264 131
 481 0 655 654 660 674 82 1 673 -1962606484 82 1 674 -1965621140 82 1 670 -19577
56820 82 1 668 -1958084500 82 1 663 -1958739860 83 3 659 .792156862745098 .81960
7843137255 .933333333333333 83 3 656 .792156862745098 .819607843137255 .93333333
3333333 17 437 0 436 453 433 434 441 485 547 0 -16 485 14 0 5e-7 441 495 466 0 0
 0 7 133 547 157 0 437 486 544 0 +544 -.035 -4286263797015735e-33 .001 -.0104558
4118581576 .04995 .001 0 1 133 486 151 0 441 675 547 0 +489 -.01045584118581576
 .04995 .001 -.035 -4286263797015735e-33 .001 1 0 137 675 150 0 7 469 486 676 +5
05 677 0 ?137 489 140 0 7 480 467 678 -499 679 0 ?133 467 147 0 457 489 680 0 +6
80 .035 0 .001 -.035 -4286263797015735e-33 .001 0 1 141 678 486 678 678 489 134
 679 0 0 0 0 0 0 +681 682 136 681 1 2 2 2 1 FFF1 683 684 685 135 682 1 0 45 4 68
3 0 1 1 1 127 2 684 2 2 128 2 685 0 1 137 680 148 0 7 467 469 686 +505 687 0 ?13
3 469 149 0 456 680 675 0 +675 -.035 -4286263797015735e-33 0 .035 0 0 0 1 141 68
6 467 686 686 680 134 687 0 0 0 0 0 0 +688 689 136 688 1 2 2 2 5 FFF1 690 691 69
2 135 689 1 0 45 4 690 0 0 -.07 0 127 2 691 2 2 128 2 692 0 1 141 676 469 676 67
6 675 134 677 0 0 0 0 0 0 +693 694 136 693 1 2 2 2 5 FFF1 695 696 697 135 694 1
 0 45 4 695 -.07 .001 0 .001 127 2 696 2 2 128 2 697 0 1 16 495 12 0 5e-7 482 48
3 485 0 0 0 7 16 475 110 0 1e-6 448 462 483 0 0 0 7 141 549 547 549 549 544 134
 550 0 0 0 0 0 0 +698 699 136 698 1 2 2 2 5 FFF1 700 701 702 135 699 1 0 45 4 70
0 0 0 -.0556544538370102 216840434497101e-33 127 2 701 2 2 128 2 702 0 1 141 543
 563 703 704 423 141 703 611 705 543 423 141 704 476 543 705 423 141 705 633 704
 703 423 137 477 172 0 7 463 474 706 +505 707 0 ?141 706 463 706 706 477 134 707
 0 0 0 0 0 0 +708 709 136 708 1 2 2 2 5 FFF1 710 711 712 135 709 1 0 45 4 710 0
 .001 0 0 127 2 711 2 2 128 2 712 0 1 141 522 501 522 522 488 134 523 0 0 0 0 0
 0 +713 714 136 713 1 2 2 2 5 FFF1 715 716 717 135 714 1 0 45 4 715 0 -.001 .07
 -.001 127 2 716 2 2 128 2 717 0 1 141 517 680 718 719 505 141 718 535 720 517 5
05 141 719 675 517 720 505 141 720 477 719 718 505 124 255 514 17 0 7 0 499 721
 +722 723 141 515 724 725 726 499 137 724 67 0 7 0 484 727 +499 728 0 ?141 725 4
96 729 515 499 141 726 490 515 729 499 137 490 122 0 7 484 496 730 -499 731 0 ?1
41 729 489 726 725 499 133 484 120 0 479 724 490 0 +724 .035 0 .001 .035 .07 .00
1 0 1 141 730 480 730 730 490 134 731 0 0 0 0 0 0 +732 733 136 732 1 2 2 2 1 FFF
1 734 735 736 135 733 1 0 45 4 734 0 0 0 1 127 2 735 2 2 128 2 736 0 1 141 727 4
84 727 727 724 134 728 0 0 0 0 0 0 +737 738 136 737 1 2 2 2 1 FFF1 739 740 741 1
35 738 1 0 45 4 739 0 0 1 0 127 2 740 2 2 128 2 741 0 1 141 721 499 721 721 514
 126 255 722 FF3 3 4 4 5 5 2 2 FFF9 3 742 743 744 745 746 125 255 723 0 1 0 1 0
 1 0 1 2 BBBBBBBB????0 0 0 0 45 48 742 .035 0 0 .01166666666666666 -142875459900
5246e-33 0 -.01166666666666666 -285750919801049e-32 0 -.035 -4286263797015735e-3
3 0 .035 .02333333333333335 0 .01439379542379824 .02110555555555555 0 -.00621240
91524035 .0188777777777778 0 -.02681861372860525 .01665 0 .035 .0466666666666667
 0 .01712092418092985 .0422111111111111 0 -.00075815163814034 .03775555555555555
 0 -.0186372274572105 .0333 0 .035 .07 0 .0198480529380614 .0633166666666667 0 .
00469610587612282 .0566333333333333 0 -.01045584118581576 .04995 0 127 2 743 4 4
 127 2 744 4 4 128 2 745 0 1 128 2 746 0 1 141 498 554 498 498 496 134 500 0 0 0
 0 0 0 +747 748 136 747 1 2 2 2 1 FFF1 749 750 751 135 748 1 0 45 4 749 1 0 1 1
 127 2 750 2 2 128 2 751 0 1 16 432 114 0 1e-6 433 18 462 0 0 0 7 19 421 80 0 7
 0 17 13 S0 141 426 425 426 426 15 134 427 0 0 0 0 0 0 +752 753 136 752 1 2 2 2
 5 FFF1 754 755 756 135 753 2 0 45 4 754 .04995 .0454558411858158 .07 0 127 2 75
5 2 2 128 2 756 0 1 141 424 602 757 758 14 141 757 15 759 424 14 141 758 591 424
 759 14 141 759 592 758 757 14 74 20 419 4 0 0 662 417 653 10 0 0 0 0 0 0 0 0 0
 0 0 0 0 0 0 0 81 2 417 228 144 7 0 10 0 0 760 0 83 1 760 1 84 11 418 stablesup5
474 20 6 1 0 0 2 0 0 0 0 0 0 0 0 0 0 0 0 0 0 0 0 0 0 0 1 0 
