**ABCDEFGHIJKLMNOPQRSTUVWXYZabcdefghijklmnopqrstuvwxyz**************************
**PARASOLID !"#$%&'()*+,-./:;<=>?@[\]^_`{|}~0123456789**************************
**PART1;
MC=AMD64;
MC_MODEL=Intel64 Family 6 Model 158 Stepping 13, GenuineIntel;
MC_ID=unknown;
OS=Windows_NT;
OS_RELEASE=unknown;
FRU=Parasolid Version 32.1, build 255,  1- 1-2021;
APPL=SOLIDWORKS 2021-2021301;
SITE=;
USER=unknown;
FORMAT=text;
GUISE=transmit;
KEY=conesup;
FILE=conesup.x_t;
DATE=Fri Jun  3 21:53:53 2022;
**PART2;
SCH=SCH_3201255_32001;
USFLD_SIZE=0;
**PART3;
**END_OF_HEADER*****************************************************************
T51 : TRANSMIT FILE created by modeller version 320125523 SCH_3201255_32001_1300
6229 0 12 34 CCCCCCI4 mesh1006 0 I8 polyline1008 0 CCCCCCCDI5 owner1040 0 CCCCCC
I13 boundary_mesh1006 0 I17 boundary_polyline1008 0 CCCA16 index_map_offset0 0 1
 dA9 index_map82 0 A17 node_id_index_map82 0 A20 schema_embedding_map82 0 A5 chi
ld12 0 A14 lowest_node_id0 0 1 dA16 mesh_offset_data206 0 Z1 130 2 3 4 5 0 0 0 0
 1e3 1e-8 0 6 0 1 0 1 1 7 8 9 10 0 0 11 12 13 0 0 0 0 0 0 0 81 255 2 2 127 14 1
 15 0 0 0 0 16 70 11 CI9 list_type0 0 1 uI10 notransmit0 0 1 lCCCDCCDI12 finger_
index0 0 1 dI12 finger_block1012 0 CZ3 0 4 T1 0 0 9 20 1 17 17 68 255 4 18 0 1 1
8 0 19 +5 -58492273524724e-27 -258408745790195e-28 0 1 0 0 -731142577037325e-28
 -323027195270331e-28 0 ?.0789347498618511 ?0 1 0 ?134 255 5 7 0 1 0 0 20 +21 22
 13 255 7 3 0 1 0 23 0 0 24 0 52 255 8 84 0 23 25 0 0 +.1074999999998356 -258408
745790195e-28 0 -1 0 0 .0259988750000362 .999123349124025 .0418632683290644 0 0
 1 31 255 9 81 0 26 27 0 0 +.1074999999998356 -258408745790195e-28 0 1 0 0 0 0 -
1 .0259988750000362 29 255 10 83 0 28 29 0 -731142577037325e-28 -323027195270331
e-28 0 19 8 CCCCCCCA5 owner12 0 Z11 1 0 1 24 0 30 V0 16 255 12 15 0 ?31 0 26 32
 0 0 1 18 255 13 56 0 33 0 28 29 ?1 17 255 33 0 34 33 33 13 0 0 0 0 ?18 28 79 0
 35 13 0 10 ?1 29 29 58 0 13 0 10 .002492949337692525 -258446692866232e-28 0 17
 35 0 36 35 35 28 0 0 0 0 ?15 255 36 76 0 35 37 0 14 255 37 72 38 ?0 39 40 7 25
 -0 0 0 39 30 81 1 38 128 41 37 42 0 0 43 44 14 39 17 43 ?37 23 34 7 45 +0 0 37
 23 30 15 40 75 0 46 37 36 68 25 80 0 37 47 8 0 +27 -58492273524724e-27 -2584087
45790195e-28 0 1 0 0 -731142577037325e-28 -323027195270331e-28 0 ?.0789347498618
511 ?0 1 0 0 13 30 65 0 0 0 0 0 0 11 23 14 23 64 48 ?39 0 49 7 8 +0 0 39 0 30 81
 1 48 130 41 23 50 0 43 0 51 15 49 63 0 52 23 53 17 52 0 49 52 52 0 31 12 0 0 -1
5 53 71 0 54 23 0 17 54 0 53 54 54 0 46 26 0 0 +17 46 0 40 46 46 0 54 26 0 0 -16
 26 77 0 ?54 12 0 9 0 0 1 17 31 0 55 31 31 0 52 12 0 0 +15 55 24 0 31 39 0 80 25
5 1 41 56 57 9000 1 1 1 1 1 1 1 1 0 FFFFTFTFFFFFFF1 81 1 50 117 58 23 0 48 0 59
 60 81 1 43 129 41 39 59 0 38 48 61 82 255 1 51 -1987641239 81 1 59 118 58 39 0
 43 50 42 62 82 1 61 -1993801623 80 1 58 0 63 8001 0 0 0 0 3 5 0 0 0 FFFFTFTFFFF
FFF2 81 1 42 119 58 37 0 38 59 0 64 83 255 3 62 .792156862745098 .81960784313725
5 .933333333333333 83 3 64 .792156862745098 .819607843137255 .933333333333333 79
 255 15 63 SDL/TYSA_COLOUR83 3 60 .792156862745098 .819607843137255 .93333333333
3333 79 14 57 SWEntUnchanged68 47 42 0 1 45 25 65 +66 -58492273524724e-27 -25840
8745790195e-28 0 1 0 0 ????0 1 0 ?134 27 82 0 1 66 9 67 +68 69 134 66 43 0 1 32
 27 70 +71 72 141 255 67 25 67 67 27 136 255 68 2 3 3 2 5 FFF1 73 74 75 135 255
 69 2 0 45 255 9 73 -731142577037325e-28 -323027195270331e-28 0 .053749999999881
3 .02374674999997095 0 .1074999999998356 .02599887500001035 0 127 255 2 74 3 3 1
28 255 2 75 .0789347498618511 .916266795440447 31 32 55 0 12 0 66 0 +.1075418632
681648 -258408745790195e-28 0 1 0 0 0 1 0 .02499975165091215 141 70 47 70 70 66
 136 71 2 3 3 2 5 FFF1 76 77 78 135 72 2 0 45 9 76 .002094821482110615 .00091732
9935498853 0 .0547974107409732 .0237906365100235 0 .1074999999998356 .0259988750
0001035 0 127 4 77 3 3 0 0 128 4 78 .0952515978320872 .916266795440447 ??60 255
 45 44 0 39 0 47 0 +VF47 .001 3903127820947815e-33 141 65 45 65 65 47 15 34 57 0
 33 39 55 82 1 44 -1991638935 19 24 68 0 1 0 11 7 S0 141 20 4 20 20 5 136 21 2 3
 3 2 5 FFF1 79 80 81 135 22 2 0 45 9 79 -731142577037325e-28 -323027195270331e-2
8 0 .0537499999998813 .02374674999997095 0 .1074999999998356 .02599887500001035
 0 127 2 80 3 3 128 2 81 .0789347498618511 .916266795440447 60 18 41 0 1 0 4 0 +
UF4 .001 ?141 19 18 19 19 4 74 4 CI16 index_map_offset0 0 1 dCCZ20 17 9 0 0 82 8
3 48 84 85 86 15 42 2 0 0 0 0 0 0 0 0 0 0 0 81 2 82 25 87 1 0 83 0 0 0 88 81 2 8
3 28 89 1 82 84 0 0 0 90 81 1 84 96 91 1 83 85 0 0 92 81 2 85 102 93 1 84 86 0 0
 94 0 81 2 86 111 95 1 85 15 0 0 0 96 81 2 15 114 97 1 86 2 0 0 0 0 80 2 97 98 9
9 9000 0 0 0 0 3 5 0 0 0 FFTFFFFFFFFFFF9 1 79 16 99 BODY_RECIPE_200180 2 95 100
 101 9000 0 0 0 0 3 5 0 0 0 FFTFFFFFFFFFFF9 1 82 1 96 1 79 24 101 BODY_IN_LIGHTW
EIGHT_PERM80 2 93 102 103 8004 0 0 0 0 3 5 0 0 0 FFTFFFFFFFFFFF2 3 83 1 94 1 79
 16 103 SDL/TYSA_DENSITY80 1 91 104 105 9000 1 1 1 1 1 1 1 1 0 FFTFFFFFFFFFFF1 8
2 1 92 35101 79 10 105 BODY_MATCH80 2 89 106 107 9000 0 0 0 0 3 5 0 0 0 FFTFFFFF
FFFFFF9 1 82 1 90 34 79 30 107 LAST_BODY_MODIFYING_FEATURE_ID80 2 87 108 109 900
0 0 0 0 0 3 5 0 0 0 FFTFFFFFFFFFFF9 1 82 1 88 104 79 19 109 ENT_TIME_STAMP_20018
0 2 14 110 111 9000 0 0 0 0 3 5 0 0 0 FFTFFFFFFFFFFF9 1 82 1 16 102 79 12 111 AT
OM_ID_20011 0 
