**ABCDEFGHIJKLMNOPQRSTUVWXYZabcdefghijklmnopqrstuvwxyz**************************
**PARASOLID !"#$%&'()*+,-./:;<=>?@[\]^_`{|}~0123456789**************************
**PART1;
MC=AMD64;
MC_MODEL=Intel64 Family 6 Model 158 Stepping 13, GenuineIntel;
MC_ID=unknown;
OS=Windows_NT;
OS_RELEASE=unknown;
FRU=Parasolid Version 32.1, build 255,  1- 1-2021;
APPL=SOLIDWORKS 2021-2021301;
SITE=;
USER=unknown;
FORMAT=text;
GUISE=transmit;
KEY=stablesup;
FILE=stablesup.x_t;
DATE=Fri Jun  3 21:55:04 2022;
**PART2;
SCH=SCH_3201255_32001;
USFLD_SIZE=0;
**PART3;
**END_OF_HEADER*****************************************************************
T51 : TRANSMIT FILE created by modeller version 320125523 SCH_3201255_32001_1300
6229 0 12 34 CCCCCCI4 mesh1006 0 I8 polyline1008 0 CCCCCCCDI5 owner1040 0 CCCCCC
I13 boundary_mesh1006 0 I17 boundary_polyline1008 0 CCCA16 index_map_offset0 0 1
 dA9 index_map82 0 A17 node_id_index_map82 0 A20 schema_embedding_map82 0 A5 chi
ld12 0 A14 lowest_node_id0 0 1 dA16 mesh_offset_data206 0 Z1 284 2 3 0 0 0 0 0 0
 1e3 1e-8 0 4 0 1 0 1 1 5 6 7 8 0 0 9 10 11 0 0 0 0 0 0 0 81 255 2 2 278 12 1 13
 0 0 0 0 14 70 11 CI9 list_type0 0 1 uI10 notransmit0 0 1 lCCCDCCDI12 finger_ind
ex0 0 1 dI12 finger_block1012 0 CZ3 0 4 T1 0 0 9 20 1 15 15 13 255 5 3 0 1 0 16
 0 0 17 0 50 255 6 198 0 18 19 0 20 +.035 0 0 0 0 1 -1982541115402065e-31 1 0 13
7 255 7 206 0 1 21 0 22 +6 23 0 ?29 255 8 106 0 24 25 0 .035 0 0 19 8 CCCCCCCA5
 owner12 0 Z9 5 0 1 17 0 26 V0 16 255 10 117 0 1e-6 27 0 28 0 0 0 1 18 255 11 15
 0 29 0 30 31 1e-6 1 17 255 29 0 32 33 34 11 35 28 36 37 +18 30 13 0 27 11 38 39
 1e-6 1 29 31 64 0 11 40 39 -.035 -4286263797015735e-33 .001 29 40 63 0 41 0 31
 .035 0 .001 29 39 65 0 30 31 42 -.01045584118581576 .04995 .001 29 42 66 0 38 3
9 43 .035 .07 .001 18 38 11 0 44 30 41 42 1e-6 1 29 43 109 0 45 42 46 .035 .07 0
 18 45 99 0 47 48 24 43 1e-6 1 29 46 108 0 48 43 25 -.01045584118581576 .04995 0
 18 48 98 0 49 50 45 46 1e-6 1 29 25 107 0 50 46 8 -.035 -4286263797015735e-33 0
 18 50 97 0 35 41 48 25 1e-6 1 17 35 0 51 52 53 50 29 28 54 55 -18 41 10 0 56 38
 50 40 1e-6 1 17 56 0 51 53 52 41 57 58 59 60 +15 255 51 115 0 35 61 0 17 53 0 5
1 35 56 11 60 62 63 0 -17 52 0 51 56 35 24 55 64 65 66 +17 57 0 67 68 69 24 56 5
8 70 52 -16 58 111 0 1e-6 56 28 71 0 0 0 1 133 255 59 171 0 56 72 73 0 +73 .035
 0 0 .035 0 .001 0 1 17 60 0 74 75 37 41 53 62 76 69 +15 74 7 0 75 77 0 17 75 0
 74 78 60 38 69 79 80 0 +17 37 0 74 60 78 11 33 81 82 53 +16 62 16 0 5e-7 60 81
 83 0 0 0 1 133 76 137 0 60 84 85 0 +86 -.035 -4286263797015735e-33 .001 .035 0
 .001 1 0 17 69 0 67 57 44 41 75 79 87 0 -15 67 112 0 57 88 0 17 44 0 67 69 68 3
8 47 71 89 90 +16 79 6 0 5e-7 75 71 91 0 0 0 1 133 87 133 0 69 92 93 0 +93 .035
 .07 .001 .035 0 .001 0 1 137 92 124 0 1 86 87 94 +95 96 0 ?137 93 134 0 1 87 97
 98 +99 100 0 ?133 97 135 0 68 93 84 0 +84 .035 0 0 .035 .07 0 0 1 141 255 98 87
 98 98 93 50 99 132 0 88 95 101 102 +.035 0 .001 1 1982541115402065e-31 0 0 1 0
 134 255 100 0 0 0 0 0 0 +103 104 136 255 103 1 2 2 2 5 FFF1 105 106 107 135 255
 104 1 0 45 255 4 105 .07 0 0 0 127 255 2 106 2 2 128 255 2 107 0 1 14 255 88 11
3 108 ?109 61 67 5 99 +0 0 109 61 26 60 255 95 62 0 77 110 99 111 +UF110 .001 ?5
0 101 146 0 61 99 112 113 -.035 0 .001 -612323399573677e-31 1 0 1 61232339957367
7e-31 0 141 102 93 114 115 99 141 114 116 117 102 99 141 115 84 102 117 99 137 8
4 136 0 1 97 76 118 +99 119 0 ?141 117 120 115 114 99 137 120 174 0 1 70 36 121
 +99 122 0 ?133 70 173 0 57 73 120 0 +120 .035 0 .001 .035 0 0 0 1 133 36 175 0
 29 120 123 0 +123 -.035 -4286263797015735e-33 0 -.035 -4286263797015735e-33 .00
1 0 1 141 121 70 121 121 120 134 122 0 0 0 0 0 0 +124 125 136 124 1 2 2 2 5 FFF1
 126 127 128 135 125 1 0 45 4 126 0 0 0 -.001 127 2 127 2 2 128 2 128 0 1 137 12
3 176 0 1 36 54 129 +112 130 0 ?133 54 177 0 35 123 131 0 +131 -.035 -4286263797
015735e-33 .001 -.035 -4286263797015735e-33 0 0 1 141 129 36 129 129 123 50 112
 156 0 16 101 19 132 --.035 -4286263797015735e-33 .001 .897502294179074 -.441009
786675193 0 -.441009786675193 -.897502294179074 0 134 130 0 0 0 0 0 0 +133 134 1
36 133 1 2 2 2 5 FFF1 135 136 137 135 134 1 0 45 4 135 0 .001 0 0 127 2 136 2 2
 128 2 137 0 1 14 16 119 138 ?61 0 32 5 112 +0 0 61 0 26 50 19 166 0 109 112 6 1
39 +.035 .07 .001 -.403572008266902 .914947886025985 0 -.914947886025986 -.40357
2008266902 0 141 132 140 141 142 112 137 140 158 0 1 143 144 145 +112 146 0 ?141
 141 147 148 132 112 141 142 149 132 148 112 137 149 160 0 1 144 150 151 +112 15
2 0 ?141 148 123 142 141 112 133 144 159 0 34 140 149 0 +149 -.01045584118581576
 .04995 0 -.035 -4286263797015735e-33 0 0 1 133 150 161 0 78 149 153 0 +92 .035
 .07 .001 -.01045584118581576 .04995 .001 0 1 141 151 144 151 151 149 134 152 0
 0 0 0 0 0 +154 155 136 154 1 2 2 2 5 FFF1 156 157 158 135 155 1 0 45 4 156 -.05
56544538370102 .001 0 .001 127 2 157 2 2 128 2 158 0 1 17 78 0 74 37 75 30 90 91
 150 33 +133 153 167 0 90 150 159 0 +159 -.01045584118581576 .04995 .001 .035 .0
7 .001 0 1 17 90 0 160 47 27 38 78 91 153 75 -137 159 168 0 1 153 161 162 +19 16
3 0 ?133 161 169 0 164 159 72 0 +72 .035 .07 0 -.01045584118581576 .04995 0 0 1
 141 162 153 162 162 159 134 163 0 0 0 0 0 0 +165 166 136 165 1 2 2 2 5 FFF1 167
 168 169 135 166 1 0 45 4 167 .0496813445662464 -216840434497101e-33 0 0 127 2 1
68 2 2 128 2 169 0 1 17 164 0 160 27 47 48 170 171 161 0 +137 72 170 0 1 161 59
 172 +19 173 0 ?141 172 161 172 172 72 134 173 0 0 0 0 0 0 +174 175 136 174 1 2
 2 2 5 FFF1 176 177 178 135 175 1 0 45 4 176 0 -.001 .0496813445662464 -.001 127
 2 177 2 2 128 2 178 0 1 15 160 83 0 164 109 0 17 27 0 160 90 164 30 49 10 179 7
8 +17 47 0 160 164 90 45 44 71 180 170 -17 170 0 181 66 182 45 164 171 21 68 -16
 171 90 0 5e-7 164 83 183 0 0 0 1 16 83 88 0 5e-7 68 62 171 0 0 0 1 16 183 92 0
 5e-7 34 171 64 0 0 0 1 17 34 0 32 29 49 50 182 183 144 0 +16 64 94 0 5e-7 52 18
3 0 0 0 0 1 15 32 118 0 49 16 0 17 49 0 32 34 33 48 27 10 184 182 -17 182 0 181
 170 55 48 34 183 185 164 -15 181 87 0 66 18 0 17 55 0 181 182 66 50 52 64 186 3
4 -133 185 203 0 182 187 188 0 +188 -.035 -4286263797015735e-33 0 -.010455841185
81576 .04995 0 0 1 137 187 202 0 1 186 185 189 +6 190 0 ?137 188 204 0 1 185 21
 191 +6 192 0 ?133 21 205 0 170 188 7 0 +7 -.01045584118581576 .04995 0 .035 .07
 0 0 1 141 191 185 191 191 188 134 192 0 0 0 0 0 0 +193 194 136 193 1 2 2 2 5 FF
F1 195 196 197 135 194 2 0 45 4 195 959152401079872e-32 .07 .04995 .045455841185
8158 127 2 196 2 2 128 2 197 0 1 133 186 201 0 55 198 187 0 +187 .035 0 0 -.035
 -4286263797015735e-33 0 0 1 141 189 186 189 189 187 134 190 0 0 0 0 0 0 +199 20
0 136 199 1 2 2 2 5 FFF1 201 202 203 135 200 2 0 45 4 201 0 0 959152401079872e-3
2 .07 127 2 202 2 2 128 2 203 0 1 137 198 200 0 1 204 186 205 +6 206 0 ?133 204
 199 0 66 207 198 0 +198 .035 .07 0 .035 0 0 0 1 141 205 204 205 205 198 134 206
 0 0 0 0 0 0 +208 209 136 208 1 2 2 2 5 FFF1 210 211 212 135 209 2 0 45 4 210 .0
7 -1387778780781446e-32 0 0 127 2 211 2 2 128 2 212 0 1 17 66 0 181 55 170 24 68
 83 204 0 -137 207 186 0 1 180 204 213 +19 214 0 ?133 180 185 0 47 116 207 0 +20
7 .035 .07 .001 .035 .07 0 0 1 141 213 180 213 213 207 134 214 0 0 0 0 0 0 +215
 216 136 215 1 2 2 2 5 FFF1 217 218 219 135 216 1 0 45 4 217 0 0 0 -.001 127 2 2
18 2 2 128 2 219 0 1 137 116 184 0 1 89 180 220 +99 221 0 ?133 89 183 0 44 147 1
16 0 +116 .035 .07 0 .035 .07 .001 0 1 141 220 89 220 220 116 134 221 0 0 0 0 0
 0 +222 223 136 222 1 2 2 2 5 FFF1 224 225 226 135 223 1 0 45 4 224 .07 -.001 .0
7 0 127 2 225 2 2 128 2 226 0 1 137 147 182 0 1 184 89 227 +112 228 0 ?133 184 1
81 0 49 229 147 0 +147 -.01045584118581576 .04995 .001 -.01045584118581576 .0499
5 0 0 1 141 227 184 227 227 147 134 228 0 0 0 0 0 0 +230 231 136 230 1 2 2 2 5 F
FF1 232 233 234 135 231 1 0 45 4 232 -.0556544538370102 216840434497101e-33 -.05
56544538370102 .001 127 2 233 2 2 128 2 234 0 1 137 229 180 0 1 179 184 235 +19
 236 0 ?133 179 179 0 27 131 229 0 +229 -.01045584118581576 .04995 0 -.010455841
18581576 .04995 .001 0 1 141 235 179 235 235 229 134 236 0 0 0 0 0 0 +237 238 13
6 237 1 2 2 2 5 FFF1 239 240 241 135 238 1 0 45 4 239 .0496813445662464 -.001 .0
496813445662464 -216840434497101e-33 127 2 240 2 2 128 2 241 0 1 137 131 178 0 1
 54 179 242 +101 243 0 ?141 242 54 242 242 131 134 243 0 0 0 0 0 0 +244 245 136
 244 1 2 2 2 5 FFF1 246 247 248 135 245 1 0 45 4 246 -.07 0 -.07 .001 127 2 247
 2 2 128 2 248 0 1 18 24 100 0 57 45 0 8 1e-6 1 17 68 0 67 44 57 45 66 83 97 0 +
14 18 84 249 ?0 77 181 5 6 -0 0 0 77 26 81 1 249 281 250 18 251 0 138 252 253 14
 77 2 252 ?18 109 74 5 95 +0 0 18 109 26 13 26 77 0 0 0 0 0 0 9 16 81 1 252 282
 250 77 254 0 249 255 256 14 109 76 255 ?77 88 160 5 19 +0 0 77 88 26 81 1 255 2
83 250 109 257 0 252 258 259 80 255 1 250 260 261 9000 1 1 1 1 1 1 1 1 0 FFFFTFT
FFFFFFF1 81 1 257 262 262 109 0 255 263 254 264 81 1 258 284 250 61 265 0 255 0
 266 82 255 1 259 -1958739860 14 61 116 258 ?88 16 51 5 101 +0 0 88 16 26 81 1 2
65 260 262 61 0 258 267 263 268 82 1 266 -1957756820 80 1 262 0 269 8001 0 0 0 0
 3 5 0 0 0 FFFFTFTFFFFFFF2 81 1 267 259 262 16 0 138 0 265 270 81 1 263 261 262
 88 0 108 265 257 271 83 255 3 268 .792156862745098 .819607843137255 .9333333333
33333 81 1 108 279 250 88 263 0 0 138 272 83 3 271 .792156862745098 .81960784313
7255 .933333333333333 81 1 138 280 250 16 267 0 108 249 273 82 1 272 -1958084500
 82 1 273 -1957429140 83 3 270 .792156862745098 .819607843137255 .93333333333333
3 79 255 15 269 SDL/TYSA_COLOUR81 1 254 263 262 77 0 252 257 251 274 83 3 264 .7
92156862745098 .819607843137255 .933333333333333 81 1 251 264 262 18 0 249 254 0
 275 83 3 274 .792156862745098 .819607843137255 .933333333333333 83 3 275 .79215
6862745098 .819607843137255 .933333333333333 79 14 261 SWEntUnchanged82 1 256 -1
965621140 82 1 253 -1962606484 17 33 0 32 49 29 30 37 81 143 0 -16 81 14 0 5e-7
 37 91 62 0 0 0 1 133 143 157 0 33 82 140 0 +140 -.035 -4286263797015735e-33 .00
1 -.01045584118581576 .04995 .001 0 1 133 82 151 0 37 276 143 0 +85 -.0104558411
8581576 .04995 .001 -.035 -4286263797015735e-33 .001 1 0 137 276 150 0 1 65 82 2
77 +101 278 0 ?137 85 140 0 1 76 63 279 -95 280 0 ?133 63 147 0 53 85 281 0 +281
 .035 0 .001 -.035 -4286263797015735e-33 .001 0 1 141 279 82 279 279 85 134 280
 0 0 0 0 0 0 +282 283 136 282 1 2 2 2 1 FFF1 284 285 286 135 283 1 0 45 4 284 0
 1 1 1 127 2 285 2 2 128 2 286 0 1 137 281 148 0 1 63 65 287 +101 288 0 ?133 65
 149 0 52 281 276 0 +276 -.035 -4286263797015735e-33 0 .035 0 0 0 1 141 287 63 2
87 287 281 134 288 0 0 0 0 0 0 +289 290 136 289 1 2 2 2 5 FFF1 291 292 293 135 2
90 1 0 45 4 291 0 0 -.07 0 127 2 292 2 2 128 2 293 0 1 141 277 65 277 277 276 13
4 278 0 0 0 0 0 0 +294 295 136 294 1 2 2 2 5 FFF1 296 297 298 135 295 1 0 45 4 2
96 -.07 .001 0 .001 127 2 297 2 2 128 2 298 0 1 16 91 12 0 5e-7 78 79 81 0 0 0 1
 16 71 110 0 1e-6 44 58 79 0 0 0 1 141 145 143 145 145 140 134 146 0 0 0 0 0 0 +
299 300 136 299 1 2 2 2 5 FFF1 301 302 303 135 300 1 0 45 4 301 0 0 -.0556544538
370102 216840434497101e-33 127 2 302 2 2 128 2 303 0 1 141 139 159 304 305 19 14
1 304 207 306 139 19 141 305 72 139 306 19 141 306 229 305 304 19 137 73 172 0 1
 59 70 307 +101 308 0 ?141 307 59 307 307 73 134 308 0 0 0 0 0 0 +309 310 136 30
9 1 2 2 2 5 FFF1 311 312 313 135 310 1 0 45 4 311 0 .001 0 0 127 2 312 2 2 128 2
 313 0 1 141 118 97 118 118 84 134 119 0 0 0 0 0 0 +314 315 136 314 1 2 2 2 5 FF
F1 316 317 318 135 315 1 0 45 4 316 0 -.001 .07 -.001 127 2 317 2 2 128 2 318 0
 1 141 113 281 319 320 101 141 319 131 321 113 101 141 320 276 113 321 101 141 3
21 73 320 319 101 124 255 110 17 0 1 0 95 322 +323 324 141 111 325 326 327 95 13
7 325 67 0 1 0 80 328 +95 329 0 ?141 326 92 330 111 95 141 327 86 111 330 95 137
 86 122 0 1 80 92 331 -95 332 0 ?141 330 85 327 326 95 133 80 120 0 75 325 86 0
 +325 .035 0 .001 .035 .07 .001 0 1 141 331 76 331 331 86 134 332 0 0 0 0 0 0 +3
33 334 136 333 1 2 2 2 1 FFF1 335 336 337 135 334 1 0 45 4 335 0 0 0 1 127 2 336
 2 2 128 2 337 0 1 141 328 80 328 328 325 134 329 0 0 0 0 0 0 +338 339 136 338 1
 2 2 2 1 FFF1 340 341 342 135 339 1 0 45 4 340 0 0 1 0 127 2 341 2 2 128 2 342 0
 1 141 322 95 322 322 110 126 255 323 FF3 3 4 4 5 5 2 2 FFF9 3 343 344 345 346 3
47 125 255 324 0 1 0 1 0 1 0 1 2 BBBBBBBB????0 0 0 0 45 48 343 .035 0 0 .0116666
6666666666 -1428754599005246e-33 0 -.01166666666666666 -285750919801049e-32 0 -.
035 -4286263797015735e-33 0 .035 .02333333333333335 0 .01439379542379824 .021105
55555555555 0 -.0062124091524035 .0188777777777778 0 -.02681861372860525 .01665
 0 .035 .0466666666666667 0 .01712092418092985 .0422111111111111 0 -.00075815163
814034 .03775555555555555 0 -.0186372274572105 .0333 0 .035 .07 0 .0198480529380
614 .0633166666666667 0 .00469610587612282 .0566333333333333 0 -.010455841185815
76 .04995 0 127 2 344 4 4 127 2 345 4 4 128 2 346 0 1 128 2 347 0 1 141 94 150 9
4 94 92 134 96 0 0 0 0 0 0 +348 349 136 348 1 2 2 2 1 FFF1 350 351 352 135 349 1
 0 45 4 350 1 0 1 1 127 2 351 2 2 128 2 352 0 1 16 28 114 0 1e-6 29 10 58 0 0 0
 1 19 17 80 0 1 0 9 5 S0 141 22 21 22 22 7 134 23 0 0 0 0 0 0 +353 354 136 353 1
 2 2 2 5 FFF1 355 356 357 135 354 2 0 45 4 355 .04995 .0454558411858158 .07 0 12
7 2 356 2 2 128 2 357 0 1 141 20 198 358 359 6 141 358 7 360 20 6 141 359 187 20
 360 6 141 360 188 359 358 6 74 4 CI16 index_map_offset0 0 1 dCCZ20 15 9 0 0 361
 362 258 363 364 365 13 251 2 0 0 0 0 0 0 0 0 0 0 0 81 2 361 44 366 1 0 362 0 0
 0 367 81 2 362 45 368 1 361 363 0 0 0 369 81 1 363 219 370 1 362 364 0 0 371 81
 2 364 228 372 1 363 365 0 0 373 0 81 2 365 253 374 1 364 13 0 0 0 375 81 2 13 2
56 376 1 365 2 0 0 0 0 80 2 376 377 378 9000 0 0 0 0 3 5 0 0 0 FFTFFFFFFFFFFF9 1
 79 16 378 BODY_RECIPE_200180 2 374 379 380 9000 0 0 0 0 3 5 0 0 0 FFTFFFFFFFFFF
F9 1 82 1 375 1 79 24 380 BODY_IN_LIGHTWEIGHT_PERM80 2 372 381 382 8004 0 0 0 0
 3 5 0 0 0 FFTFFFFFFFFFFF2 3 83 1 373 1 79 16 382 SDL/TYSA_DENSITY80 1 370 383 3
84 9000 1 1 1 1 1 1 1 1 0 FFTFFFFFFFFFFF1 82 1 371 494259 79 10 384 BODY_MATCH80
 2 368 385 386 9000 0 0 0 0 3 5 0 0 0 FFTFFFFFFFFFFF9 1 82 1 369 103 79 19 386 E
NT_TIME_STAMP_200180 2 366 387 388 9000 0 0 0 0 3 5 0 0 0 FFTFFFFFFFFFFF9 1 82 1
 367 51 79 30 388 LAST_BODY_MODIFYING_FEATURE_ID80 2 12 389 390 9000 0 0 0 0 3 5
 0 0 0 FFTFFFFFFFFFFF9 1 82 1 14 102 79 12 390 ATOM_ID_20011 0 
